<?xml version="1.0" encoding="utf-8" standalone="no"?>
<!DOCTYPE svg PUBLIC "-//W3C//DTD SVG 1.1//EN"
  "http://www.w3.org/Graphics/SVG/1.1/DTD/svg11.dtd">
<svg height="432pt" version="1.1" viewBox="0 0 648 432" width="648pt" xmlns="http://www.w3.org/2000/svg" xmlns:xlink="http://www.w3.org/1999/xlink">
 <metadata>
  <rdf:RDF xmlns:cc="http://creativecommons.org/ns#" xmlns:dc="http://purl.org/dc/elements/1.1/" xmlns:rdf="http://www.w3.org/1999/02/22-rdf-syntax-ns#">
   <cc:Work>
    <dc:type rdf:resource="http://purl.org/dc/dcmitype/StillImage"/>
    <dc:date>2022-01-20T16:20:37.411491</dc:date>
    <dc:format>image/svg+xml</dc:format>
    <dc:creator>
     <cc:Agent>
      <dc:title>Matplotlib v3.4.2, https://matplotlib.org/</dc:title>
     </cc:Agent>
    </dc:creator>
   </cc:Work>
  </rdf:RDF>
 </metadata>
 <defs>
  <style type="text/css">*{stroke-linecap:butt;stroke-linejoin:round;}</style>
 </defs>
 <g id="figure_1">
  <g id="patch_1">
   <path d="M 0 432 
L 648 432 
L 648 0 
L 0 0 
z
" style="fill:none;"/>
  </g>
  <g id="axes_1">
   <g id="patch_2">
    <path d="M 87.05 369.7 
L 637.2 369.7 
L 637.2 30.8 
L 87.05 30.8 
z
" style="fill:#ffffff;"/>
   </g>
   <g id="PolyCollection_1">
    <path clip-path="url(#p41e7263bf4)" d="M 112.056818 222.398111 
L 112.056818 251.710297 
L 147.780844 251.710297 
L 147.780844 238.611947 
L 183.50487 238.611947 
L 183.50487 228.787227 
L 219.228896 228.787227 
L 219.228896 228.056794 
L 254.952922 228.056794 
L 254.952922 227.532029 
L 290.676948 227.532029 
L 290.676948 231.613 
L 326.400974 231.613 
L 326.400974 239.829793 
L 362.125 239.829793 
L 362.125 237.138287 
L 397.849026 237.138287 
L 397.849026 258.973862 
L 433.573052 258.973862 
L 433.573052 273.197022 
L 469.297078 273.197022 
L 469.297078 286.980333 
L 505.021104 286.980333 
L 505.021104 298.365692 
L 540.74513 298.365692 
L 540.74513 307.75229 
L 576.469156 307.75229 
L 576.469156 318.897639 
L 612.193182 318.897639 
L 612.193182 325.913657 
L 612.193182 79.088787 
L 612.193182 79.088787 
L 612.193182 88.017559 
L 576.469156 88.017559 
L 576.469156 95.434815 
L 540.74513 95.434815 
L 540.74513 105.379777 
L 505.021104 105.379777 
L 505.021104 115.914634 
L 469.297078 115.914634 
L 469.297078 129.429695 
L 433.573052 129.429695 
L 433.573052 145.277206 
L 397.849026 145.277206 
L 397.849026 170.030347 
L 362.125 170.030347 
L 362.125 194.332289 
L 326.400974 194.332289 
L 326.400974 198.535757 
L 290.676948 198.535757 
L 290.676948 202.522956 
L 254.952922 202.522956 
L 254.952922 204.849047 
L 219.228896 204.849047 
L 219.228896 208.355666 
L 183.50487 208.355666 
L 183.50487 217.553629 
L 147.780844 217.553629 
L 147.780844 222.398111 
L 112.056818 222.398111 
z
" style="fill:#1f77b4;fill-opacity:0.1;"/>
   </g>
   <g id="PolyCollection_2">
    <path clip-path="url(#p41e7263bf4)" d="M 112.056818 211.846307 
L 112.056818 240.29746 
L 147.780844 240.29746 
L 147.780844 221.382092 
L 183.50487 221.382092 
L 183.50487 211.833908 
L 219.228896 211.833908 
L 219.228896 247.154189 
L 254.952922 247.154189 
L 254.952922 264.786698 
L 290.676948 264.786698 
L 290.676948 278.098489 
L 326.400974 278.098489 
L 326.400974 288.955747 
L 362.125 288.955747 
L 362.125 298.844089 
L 397.849026 298.844089 
L 397.849026 308.99197 
L 433.573052 308.99197 
L 433.573052 317.932847 
L 469.297078 317.932847 
L 469.297078 324.728867 
L 505.021104 324.728867 
L 505.021104 330.967841 
L 540.74513 330.967841 
L 540.74513 339.485737 
L 576.469156 339.485737 
L 576.469156 347.755826 
L 612.193182 347.755826 
L 612.193182 354.295455 
L 612.193182 46.204545 
L 612.193182 46.204545 
L 612.193182 53.633012 
L 576.469156 53.633012 
L 576.469156 60.617656 
L 540.74513 60.617656 
L 540.74513 68.058481 
L 505.021104 68.058481 
L 505.021104 76.09425 
L 469.297078 76.09425 
L 469.297078 83.480842 
L 433.573052 83.480842 
L 433.573052 92.233199 
L 397.849026 92.233199 
L 397.849026 102.409355 
L 362.125 102.409355 
L 362.125 112.05184 
L 326.400974 112.05184 
L 326.400974 124.059369 
L 290.676948 124.059369 
L 290.676948 137.415014 
L 254.952922 137.415014 
L 254.952922 155.909627 
L 219.228896 155.909627 
L 219.228896 190.040333 
L 183.50487 190.040333 
L 183.50487 200.71222 
L 147.780844 200.71222 
L 147.780844 211.846307 
L 112.056818 211.846307 
z
" style="fill:#ff7f0e;fill-opacity:0.1;"/>
   </g>
   <g id="PolyCollection_3">
    <path clip-path="url(#p41e7263bf4)" d="M 112.056818 260.554877 
L 112.056818 305.397237 
L 147.780844 305.397237 
L 147.780844 261.34649 
L 183.50487 261.34649 
L 183.50487 243.058793 
L 219.228896 243.058793 
L 219.228896 245.946351 
L 254.952922 245.946351 
L 254.952922 241.309834 
L 290.676948 241.309834 
L 290.676948 237.371465 
L 326.400974 237.371465 
L 326.400974 237.86985 
L 362.125 237.86985 
L 362.125 239.419657 
L 397.849026 239.419657 
L 397.849026 249.11883 
L 433.573052 249.11883 
L 433.573052 252.337532 
L 469.297078 252.337532 
L 469.297078 242.576235 
L 505.021104 242.576235 
L 505.021104 267.701598 
L 540.74513 267.701598 
L 540.74513 248.072928 
L 576.469156 248.072928 
L 576.469156 234.235586 
L 612.193182 234.235586 
L 612.193182 231.500932 
L 612.193182 162.737194 
L 612.193182 162.737194 
L 612.193182 191.038435 
L 576.469156 191.038435 
L 576.469156 206.467843 
L 540.74513 206.467843 
L 540.74513 218.92095 
L 505.021104 218.92095 
L 505.021104 209.506863 
L 469.297078 209.506863 
L 469.297078 217.162278 
L 433.573052 217.162278 
L 433.573052 217.934466 
L 397.849026 217.934466 
L 397.849026 212.138004 
L 362.125 212.138004 
L 362.125 212.177479 
L 326.400974 212.177479 
L 326.400974 213.690898 
L 290.676948 213.690898 
L 290.676948 218.308891 
L 254.952922 218.308891 
L 254.952922 222.886419 
L 219.228896 222.886419 
L 219.228896 222.346039 
L 183.50487 222.346039 
L 183.50487 238.44809 
L 147.780844 238.44809 
L 147.780844 260.554877 
L 112.056818 260.554877 
z
" style="fill:#2ca02c;fill-opacity:0.1;"/>
   </g>
   <g id="PolyCollection_4">
    <path clip-path="url(#p41e7263bf4)" d="M 112.056818 236.663379 
L 112.056818 268.65734 
L 147.780844 268.65734 
L 147.780844 245.804597 
L 183.50487 245.804597 
L 183.50487 231.79564 
L 219.228896 231.79564 
L 219.228896 230.089943 
L 254.952922 230.089943 
L 254.952922 229.681754 
L 290.676948 229.681754 
L 290.676948 236.981139 
L 326.400974 236.981139 
L 326.400974 238.994588 
L 362.125 238.994588 
L 362.125 244.823585 
L 397.849026 244.823585 
L 397.849026 223.852356 
L 433.573052 223.852356 
L 433.573052 246.689513 
L 469.297078 246.689513 
L 469.297078 264.065177 
L 505.021104 264.065177 
L 505.021104 276.671104 
L 540.74513 276.671104 
L 540.74513 288.469527 
L 576.469156 288.469527 
L 576.469156 301.478472 
L 612.193182 301.478472 
L 612.193182 310.437131 
L 612.193182 86.875272 
L 612.193182 86.875272 
L 612.193182 94.528095 
L 576.469156 94.528095 
L 576.469156 102.311403 
L 540.74513 102.311403 
L 540.74513 114.280808 
L 505.021104 114.280808 
L 505.021104 128.280045 
L 469.297078 128.280045 
L 469.297078 146.710207 
L 433.573052 146.710207 
L 433.573052 173.729267 
L 397.849026 173.729267 
L 397.849026 203.735131 
L 362.125 203.735131 
L 362.125 206.898302 
L 326.400974 206.898302 
L 326.400974 208.860432 
L 290.676948 208.860432 
L 290.676948 206.355639 
L 254.952922 206.355639 
L 254.952922 207.533392 
L 219.228896 207.533392 
L 219.228896 211.326122 
L 183.50487 211.326122 
L 183.50487 224.162624 
L 147.780844 224.162624 
L 147.780844 236.663379 
L 112.056818 236.663379 
z
" style="fill:#d62728;fill-opacity:0.1;"/>
   </g>
   <g id="matplotlib.axis_1">
    <g id="xtick_1">
     <g id="line2d_1">
      <defs>
       <path d="M 0 0 
L 0 3.5 
" id="m4e8f140425" style="stroke:#000000;stroke-width:0.8;"/>
      </defs>
      <g>
       <use style="stroke:#000000;stroke-width:0.8;" x="112.056818" xlink:href="#m4e8f140425" y="369.7"/>
      </g>
     </g>
     <g id="text_1">
      <!-- 0 -->
      <g transform="translate(107.284943 388.097656)scale(0.15 -0.15)">
       <defs>
        <path d="M 2034 4250 
Q 1547 4250 1301 3770 
Q 1056 3291 1056 2328 
Q 1056 1369 1301 889 
Q 1547 409 2034 409 
Q 2525 409 2770 889 
Q 3016 1369 3016 2328 
Q 3016 3291 2770 3770 
Q 2525 4250 2034 4250 
z
M 2034 4750 
Q 2819 4750 3233 4129 
Q 3647 3509 3647 2328 
Q 3647 1150 3233 529 
Q 2819 -91 2034 -91 
Q 1250 -91 836 529 
Q 422 1150 422 2328 
Q 422 3509 836 4129 
Q 1250 4750 2034 4750 
z
" id="DejaVuSans-30" transform="scale(0.015625)"/>
       </defs>
       <use xlink:href="#DejaVuSans-30"/>
      </g>
     </g>
    </g>
    <g id="xtick_2">
     <g id="line2d_2">
      <g>
       <use style="stroke:#000000;stroke-width:0.8;" x="231.136905" xlink:href="#m4e8f140425" y="369.7"/>
      </g>
     </g>
     <g id="text_2">
      <!-- 5 -->
      <g transform="translate(226.36503 388.097656)scale(0.15 -0.15)">
       <defs>
        <path d="M 691 4666 
L 3169 4666 
L 3169 4134 
L 1269 4134 
L 1269 2991 
Q 1406 3038 1543 3061 
Q 1681 3084 1819 3084 
Q 2600 3084 3056 2656 
Q 3513 2228 3513 1497 
Q 3513 744 3044 326 
Q 2575 -91 1722 -91 
Q 1428 -91 1123 -41 
Q 819 9 494 109 
L 494 744 
Q 775 591 1075 516 
Q 1375 441 1709 441 
Q 2250 441 2565 725 
Q 2881 1009 2881 1497 
Q 2881 1984 2565 2268 
Q 2250 2553 1709 2553 
Q 1456 2553 1204 2497 
Q 953 2441 691 2322 
L 691 4666 
z
" id="DejaVuSans-35" transform="scale(0.015625)"/>
       </defs>
       <use xlink:href="#DejaVuSans-35"/>
      </g>
     </g>
    </g>
    <g id="xtick_3">
     <g id="line2d_3">
      <g>
       <use style="stroke:#000000;stroke-width:0.8;" x="350.216991" xlink:href="#m4e8f140425" y="369.7"/>
      </g>
     </g>
     <g id="text_3">
      <!-- 10 -->
      <g transform="translate(340.673241 388.097656)scale(0.15 -0.15)">
       <defs>
        <path d="M 794 531 
L 1825 531 
L 1825 4091 
L 703 3866 
L 703 4441 
L 1819 4666 
L 2450 4666 
L 2450 531 
L 3481 531 
L 3481 0 
L 794 0 
L 794 531 
z
" id="DejaVuSans-31" transform="scale(0.015625)"/>
       </defs>
       <use xlink:href="#DejaVuSans-31"/>
       <use x="63.623047" xlink:href="#DejaVuSans-30"/>
      </g>
     </g>
    </g>
    <g id="xtick_4">
     <g id="line2d_4">
      <g>
       <use style="stroke:#000000;stroke-width:0.8;" x="469.297078" xlink:href="#m4e8f140425" y="369.7"/>
      </g>
     </g>
     <g id="text_4">
      <!-- 15 -->
      <g transform="translate(459.753328 388.097656)scale(0.15 -0.15)">
       <use xlink:href="#DejaVuSans-31"/>
       <use x="63.623047" xlink:href="#DejaVuSans-35"/>
      </g>
     </g>
    </g>
    <g id="xtick_5">
     <g id="line2d_5">
      <g>
       <use style="stroke:#000000;stroke-width:0.8;" x="588.377165" xlink:href="#m4e8f140425" y="369.7"/>
      </g>
     </g>
     <g id="text_5">
      <!-- 20 -->
      <g transform="translate(578.833415 388.097656)scale(0.15 -0.15)">
       <defs>
        <path d="M 1228 531 
L 3431 531 
L 3431 0 
L 469 0 
L 469 531 
Q 828 903 1448 1529 
Q 2069 2156 2228 2338 
Q 2531 2678 2651 2914 
Q 2772 3150 2772 3378 
Q 2772 3750 2511 3984 
Q 2250 4219 1831 4219 
Q 1534 4219 1204 4116 
Q 875 4013 500 3803 
L 500 4441 
Q 881 4594 1212 4672 
Q 1544 4750 1819 4750 
Q 2544 4750 2975 4387 
Q 3406 4025 3406 3419 
Q 3406 3131 3298 2873 
Q 3191 2616 2906 2266 
Q 2828 2175 2409 1742 
Q 1991 1309 1228 531 
z
" id="DejaVuSans-32" transform="scale(0.015625)"/>
       </defs>
       <use xlink:href="#DejaVuSans-32"/>
       <use x="63.623047" xlink:href="#DejaVuSans-30"/>
      </g>
     </g>
    </g>
    <g id="text_6">
     <!-- $t_{pore}$ (ns) -->
     <g transform="translate(319.425 410.417188)scale(0.2 -0.2)">
      <defs>
       <path d="M 2706 3500 
L 2619 3053 
L 1472 3053 
L 1100 1153 
Q 1081 1047 1072 975 
Q 1063 903 1063 863 
Q 1063 663 1183 572 
Q 1303 481 1569 481 
L 2150 481 
L 2053 0 
L 1503 0 
Q 991 0 739 200 
Q 488 400 488 806 
Q 488 878 497 964 
Q 506 1050 525 1153 
L 897 3053 
L 409 3053 
L 500 3500 
L 978 3500 
L 1172 4494 
L 1747 4494 
L 1556 3500 
L 2706 3500 
z
" id="DejaVuSans-Oblique-74" transform="scale(0.015625)"/>
       <path d="M 3175 2156 
Q 3175 2616 2975 2859 
Q 2775 3103 2400 3103 
Q 2144 3103 1911 2972 
Q 1678 2841 1497 2591 
Q 1319 2344 1212 1994 
Q 1106 1644 1106 1300 
Q 1106 863 1306 627 
Q 1506 391 1875 391 
Q 2147 391 2380 519 
Q 2613 647 2778 891 
Q 2956 1147 3065 1494 
Q 3175 1841 3175 2156 
z
M 1394 2969 
Q 1625 3272 1939 3428 
Q 2253 3584 2638 3584 
Q 3175 3584 3472 3232 
Q 3769 2881 3769 2247 
Q 3769 1728 3584 1258 
Q 3400 788 3053 416 
Q 2822 169 2531 39 
Q 2241 -91 1919 -91 
Q 1547 -91 1294 64 
Q 1041 219 916 525 
L 556 -1331 
L -19 -1331 
L 922 3500 
L 1497 3500 
L 1394 2969 
z
" id="DejaVuSans-Oblique-70" transform="scale(0.015625)"/>
       <path d="M 1625 -91 
Q 1009 -91 651 289 
Q 294 669 294 1325 
Q 294 1706 417 2101 
Q 541 2497 738 2766 
Q 1047 3184 1428 3384 
Q 1809 3584 2291 3584 
Q 2888 3584 3255 3212 
Q 3622 2841 3622 2241 
Q 3622 1825 3500 1412 
Q 3378 1000 3181 728 
Q 2875 309 2494 109 
Q 2113 -91 1625 -91 
z
M 891 1344 
Q 891 869 1089 633 
Q 1288 397 1691 397 
Q 2269 397 2648 901 
Q 3028 1406 3028 2181 
Q 3028 2634 2825 2865 
Q 2622 3097 2228 3097 
Q 1903 3097 1650 2945 
Q 1397 2794 1197 2484 
Q 1050 2253 970 1956 
Q 891 1659 891 1344 
z
" id="DejaVuSans-Oblique-6f" transform="scale(0.015625)"/>
       <path d="M 2853 2969 
Q 2766 3016 2653 3041 
Q 2541 3066 2413 3066 
Q 1953 3066 1609 2717 
Q 1266 2369 1153 1784 
L 800 0 
L 225 0 
L 909 3500 
L 1484 3500 
L 1375 2956 
Q 1603 3259 1920 3421 
Q 2238 3584 2597 3584 
Q 2691 3584 2781 3573 
Q 2872 3563 2963 3538 
L 2853 2969 
z
" id="DejaVuSans-Oblique-72" transform="scale(0.015625)"/>
       <path d="M 3078 2063 
Q 3088 2113 3092 2166 
Q 3097 2219 3097 2272 
Q 3097 2653 2873 2875 
Q 2650 3097 2266 3097 
Q 1838 3097 1509 2826 
Q 1181 2556 1013 2059 
L 3078 2063 
z
M 3578 1613 
L 903 1613 
Q 884 1494 878 1425 
Q 872 1356 872 1306 
Q 872 872 1139 634 
Q 1406 397 1894 397 
Q 2269 397 2603 481 
Q 2938 566 3225 728 
L 3116 159 
Q 2806 34 2476 -28 
Q 2147 -91 1806 -91 
Q 1078 -91 686 257 
Q 294 606 294 1247 
Q 294 1794 489 2264 
Q 684 2734 1063 3103 
Q 1306 3334 1642 3459 
Q 1978 3584 2356 3584 
Q 2950 3584 3301 3228 
Q 3653 2872 3653 2272 
Q 3653 2128 3634 1964 
Q 3616 1800 3578 1613 
z
" id="DejaVuSans-Oblique-65" transform="scale(0.015625)"/>
       <path id="DejaVuSans-20" transform="scale(0.015625)"/>
       <path d="M 1984 4856 
Q 1566 4138 1362 3434 
Q 1159 2731 1159 2009 
Q 1159 1288 1364 580 
Q 1569 -128 1984 -844 
L 1484 -844 
Q 1016 -109 783 600 
Q 550 1309 550 2009 
Q 550 2706 781 3412 
Q 1013 4119 1484 4856 
L 1984 4856 
z
" id="DejaVuSans-28" transform="scale(0.015625)"/>
       <path d="M 3513 2113 
L 3513 0 
L 2938 0 
L 2938 2094 
Q 2938 2591 2744 2837 
Q 2550 3084 2163 3084 
Q 1697 3084 1428 2787 
Q 1159 2491 1159 1978 
L 1159 0 
L 581 0 
L 581 3500 
L 1159 3500 
L 1159 2956 
Q 1366 3272 1645 3428 
Q 1925 3584 2291 3584 
Q 2894 3584 3203 3211 
Q 3513 2838 3513 2113 
z
" id="DejaVuSans-6e" transform="scale(0.015625)"/>
       <path d="M 2834 3397 
L 2834 2853 
Q 2591 2978 2328 3040 
Q 2066 3103 1784 3103 
Q 1356 3103 1142 2972 
Q 928 2841 928 2578 
Q 928 2378 1081 2264 
Q 1234 2150 1697 2047 
L 1894 2003 
Q 2506 1872 2764 1633 
Q 3022 1394 3022 966 
Q 3022 478 2636 193 
Q 2250 -91 1575 -91 
Q 1294 -91 989 -36 
Q 684 19 347 128 
L 347 722 
Q 666 556 975 473 
Q 1284 391 1588 391 
Q 1994 391 2212 530 
Q 2431 669 2431 922 
Q 2431 1156 2273 1281 
Q 2116 1406 1581 1522 
L 1381 1569 
Q 847 1681 609 1914 
Q 372 2147 372 2553 
Q 372 3047 722 3315 
Q 1072 3584 1716 3584 
Q 2034 3584 2315 3537 
Q 2597 3491 2834 3397 
z
" id="DejaVuSans-73" transform="scale(0.015625)"/>
       <path d="M 513 4856 
L 1013 4856 
Q 1481 4119 1714 3412 
Q 1947 2706 1947 2009 
Q 1947 1309 1714 600 
Q 1481 -109 1013 -844 
L 513 -844 
Q 928 -128 1133 580 
Q 1338 1288 1338 2009 
Q 1338 2731 1133 3434 
Q 928 4138 513 4856 
z
" id="DejaVuSans-29" transform="scale(0.015625)"/>
      </defs>
      <use transform="translate(0 0.125)" xlink:href="#DejaVuSans-Oblique-74"/>
      <use transform="translate(39.208984 -16.28125)scale(0.7)" xlink:href="#DejaVuSans-Oblique-70"/>
      <use transform="translate(83.642578 -16.28125)scale(0.7)" xlink:href="#DejaVuSans-Oblique-6f"/>
      <use transform="translate(126.469727 -16.28125)scale(0.7)" xlink:href="#DejaVuSans-Oblique-72"/>
      <use transform="translate(155.249023 -16.28125)scale(0.7)" xlink:href="#DejaVuSans-Oblique-65"/>
      <use transform="translate(201.049805 0.125)" xlink:href="#DejaVuSans-20"/>
      <use transform="translate(232.836914 0.125)" xlink:href="#DejaVuSans-28"/>
      <use transform="translate(271.850586 0.125)" xlink:href="#DejaVuSans-6e"/>
      <use transform="translate(335.229492 0.125)" xlink:href="#DejaVuSans-73"/>
      <use transform="translate(387.329102 0.125)" xlink:href="#DejaVuSans-29"/>
     </g>
    </g>
   </g>
   <g id="matplotlib.axis_2">
    <g id="ytick_1">
     <g id="line2d_6">
      <defs>
       <path d="M 0 0 
L -3.5 0 
" id="mb55af6e6a7" style="stroke:#000000;stroke-width:0.8;"/>
      </defs>
      <g>
       <use style="stroke:#000000;stroke-width:0.8;" x="87.05" xlink:href="#mb55af6e6a7" y="299.929022"/>
      </g>
     </g>
     <g id="text_7">
      <!-- −10 -->
      <g transform="translate(37.840625 307.527459)scale(0.2 -0.2)">
       <defs>
        <path d="M 678 2272 
L 4684 2272 
L 4684 1741 
L 678 1741 
L 678 2272 
z
" id="DejaVuSans-2212" transform="scale(0.015625)"/>
       </defs>
       <use xlink:href="#DejaVuSans-2212"/>
       <use x="83.789062" xlink:href="#DejaVuSans-31"/>
       <use x="147.412109" xlink:href="#DejaVuSans-30"/>
      </g>
     </g>
    </g>
    <g id="ytick_2">
     <g id="line2d_7">
      <g>
       <use style="stroke:#000000;stroke-width:0.8;" x="87.05" xlink:href="#mb55af6e6a7" y="225.407654"/>
      </g>
     </g>
     <g id="text_8">
      <!-- −5 -->
      <g transform="translate(50.565625 233.006092)scale(0.2 -0.2)">
       <use xlink:href="#DejaVuSans-2212"/>
       <use x="83.789062" xlink:href="#DejaVuSans-35"/>
      </g>
     </g>
    </g>
    <g id="ytick_3">
     <g id="line2d_8">
      <g>
       <use style="stroke:#000000;stroke-width:0.8;" x="87.05" xlink:href="#mb55af6e6a7" y="150.886287"/>
      </g>
     </g>
     <g id="text_9">
      <!-- 0 -->
      <g transform="translate(67.325 158.484724)scale(0.2 -0.2)">
       <use xlink:href="#DejaVuSans-30"/>
      </g>
     </g>
    </g>
    <g id="ytick_4">
     <g id="line2d_9">
      <g>
       <use style="stroke:#000000;stroke-width:0.8;" x="87.05" xlink:href="#mb55af6e6a7" y="76.364919"/>
      </g>
     </g>
     <g id="text_10">
      <!-- 5 -->
      <g transform="translate(67.325 83.963357)scale(0.2 -0.2)">
       <use xlink:href="#DejaVuSans-35"/>
      </g>
     </g>
    </g>
    <g id="text_11">
     <!-- $\beta (t)$ -->
     <g transform="translate(29.640625 218.45)rotate(-90)scale(0.2 -0.2)">
      <defs>
       <path d="M 872 216 
L 572 -1331 
L -6 -1331 
L 928 3478 
Q 1206 4903 2538 4903 
Q 3888 4903 3659 3700 
Q 3503 2844 2894 2531 
Q 3713 2250 3553 1416 
Q 3272 -69 1759 -66 
Q 1097 -63 872 216 
z
M 1019 966 
Q 1259 422 1875 425 
Q 2775 425 2966 1406 
Q 3138 2288 1675 2219 
L 1778 2750 
Q 2909 2731 3106 3750 
Q 3241 4438 2509 4434 
Q 1691 4434 1503 3459 
L 1019 966 
z
" id="DejaVuSans-Oblique-3b2" transform="scale(0.015625)"/>
      </defs>
      <use transform="translate(0 0.390625)" xlink:href="#DejaVuSans-Oblique-3b2"/>
      <use transform="translate(63.818359 0.390625)" xlink:href="#DejaVuSans-28"/>
      <use transform="translate(102.832031 0.390625)" xlink:href="#DejaVuSans-Oblique-74"/>
      <use transform="translate(142.041016 0.390625)" xlink:href="#DejaVuSans-29"/>
     </g>
    </g>
   </g>
   <g id="line2d_10">
    <path clip-path="url(#p41e7263bf4)" d="M 112.056818 238.313118 
L 147.780844 238.313118 
L 147.780844 228.650447 
L 183.50487 228.650447 
L 183.50487 219.205612 
L 219.228896 219.205612 
L 219.228896 217.169173 
L 254.952922 217.169173 
L 254.952922 215.358451 
L 290.676948 215.358451 
L 290.676948 214.549128 
L 326.400974 214.549128 
L 326.400974 214.471936 
L 362.125 214.471936 
L 362.125 198.759219 
L 397.849026 198.759219 
L 397.849026 200.371579 
L 433.573052 200.371579 
L 433.573052 200.96277 
L 469.297078 200.96277 
L 469.297078 200.395916 
L 505.021104 200.395916 
L 505.021104 201.127897 
L 540.74513 201.127897 
L 540.74513 201.5298 
L 576.469156 201.5298 
L 576.469156 202.19084 
L 612.193182 202.19084 
L 612.193182 201.831549 
" style="fill:none;stroke:#1f77b4;stroke-linecap:square;stroke-width:1.5;"/>
   </g>
   <g id="line2d_11">
    <path clip-path="url(#p41e7263bf4)" d="M 112.056818 227.274715 
L 147.780844 227.274715 
L 147.780844 211.572278 
L 183.50487 211.572278 
L 183.50487 201.524416 
L 219.228896 201.524416 
L 219.228896 201.354118 
L 254.952922 201.354118 
L 254.952922 201.416338 
L 290.676948 201.416338 
L 290.676948 201.008302 
L 326.400974 201.008302 
L 326.400974 201.576622 
L 362.125 201.576622 
L 362.125 201.101511 
L 397.849026 201.101511 
L 397.849026 202.394257 
L 433.573052 202.394257 
L 433.573052 202.532126 
L 469.297078 202.532126 
L 469.297078 201.787384 
L 505.021104 201.787384 
L 505.021104 201.281718 
L 540.74513 201.281718 
L 540.74513 201.266655 
L 576.469156 201.266655 
L 576.469156 200.956939 
L 612.193182 200.956939 
L 612.193182 200.928818 
" style="fill:none;stroke:#ff7f0e;stroke-linecap:square;stroke-width:1.5;"/>
   </g>
   <g id="line2d_12">
    <path clip-path="url(#p41e7263bf4)" d="M 112.056818 281.436459 
L 147.780844 281.436459 
L 147.780844 250.324719 
L 183.50487 250.324719 
L 183.50487 233.291717 
L 219.228896 233.291717 
L 219.228896 234.940035 
L 254.952922 234.940035 
L 254.952922 230.438052 
L 290.676948 230.438052 
L 290.676948 226.324997 
L 326.400974 226.324997 
L 326.400974 225.54438 
L 362.125 225.54438 
L 362.125 226.155973 
L 397.849026 226.155973 
L 397.849026 233.186534 
L 433.573052 233.186534 
L 433.573052 234.461967 
L 469.297078 234.461967 
L 469.297078 225.925354 
L 505.021104 225.925354 
L 505.021104 241.562502 
L 540.74513 241.562502 
L 540.74513 225.927257 
L 576.469156 225.927257 
L 576.469156 211.049211 
L 612.193182 211.049211 
L 612.193182 192.247621 
" style="fill:none;stroke:#2ca02c;stroke-linecap:square;stroke-width:1.5;"/>
   </g>
   <g id="line2d_13">
    <path clip-path="url(#p41e7263bf4)" d="M 112.056818 253.539682 
L 147.780844 253.539682 
L 147.780844 235.681167 
L 183.50487 235.681167 
L 183.50487 222.180409 
L 219.228896 222.180409 
L 219.228896 219.400731 
L 254.952922 219.400731 
L 254.952922 218.644167 
L 290.676948 218.644167 
L 290.676948 222.74607 
L 326.400974 222.74607 
L 326.400974 222.524051 
L 362.125 222.524051 
L 362.125 222.953593 
L 397.849026 222.953593 
L 397.849026 195.934156 
L 433.573052 195.934156 
L 433.573052 196.982431 
L 469.297078 196.982431 
L 469.297078 196.589875 
L 505.021104 196.589875 
L 505.021104 197.165004 
L 540.74513 197.165004 
L 540.74513 196.327888 
L 576.469156 196.327888 
L 576.469156 197.385038 
L 612.193182 197.385038 
L 612.193182 198.031302 
" style="fill:none;stroke:#d62728;stroke-linecap:square;stroke-width:1.5;"/>
   </g>
   <g id="patch_3">
    <path d="M 87.05 369.7 
L 87.05 30.8 
" style="fill:none;stroke:#000000;stroke-linecap:square;stroke-linejoin:miter;stroke-width:0.8;"/>
   </g>
   <g id="patch_4">
    <path d="M 637.2 369.7 
L 637.2 30.8 
" style="fill:none;stroke:#000000;stroke-linecap:square;stroke-linejoin:miter;stroke-width:0.8;"/>
   </g>
   <g id="patch_5">
    <path d="M 87.05 369.7 
L 637.2 369.7 
" style="fill:none;stroke:#000000;stroke-linecap:square;stroke-linejoin:miter;stroke-width:0.8;"/>
   </g>
   <g id="patch_6">
    <path d="M 87.05 30.8 
L 637.2 30.8 
" style="fill:none;stroke:#000000;stroke-linecap:square;stroke-linejoin:miter;stroke-width:0.8;"/>
   </g>
   <g id="text_12">
    <!-- Time dependent $\beta$ model -->
    <g transform="translate(267.625 24.8)scale(0.15 -0.15)">
     <defs>
      <path d="M -19 4666 
L 3928 4666 
L 3928 4134 
L 2272 4134 
L 2272 0 
L 1638 0 
L 1638 4134 
L -19 4134 
L -19 4666 
z
" id="DejaVuSans-54" transform="scale(0.015625)"/>
      <path d="M 603 3500 
L 1178 3500 
L 1178 0 
L 603 0 
L 603 3500 
z
M 603 4863 
L 1178 4863 
L 1178 4134 
L 603 4134 
L 603 4863 
z
" id="DejaVuSans-69" transform="scale(0.015625)"/>
      <path d="M 3328 2828 
Q 3544 3216 3844 3400 
Q 4144 3584 4550 3584 
Q 5097 3584 5394 3201 
Q 5691 2819 5691 2113 
L 5691 0 
L 5113 0 
L 5113 2094 
Q 5113 2597 4934 2840 
Q 4756 3084 4391 3084 
Q 3944 3084 3684 2787 
Q 3425 2491 3425 1978 
L 3425 0 
L 2847 0 
L 2847 2094 
Q 2847 2600 2669 2842 
Q 2491 3084 2119 3084 
Q 1678 3084 1418 2786 
Q 1159 2488 1159 1978 
L 1159 0 
L 581 0 
L 581 3500 
L 1159 3500 
L 1159 2956 
Q 1356 3278 1631 3431 
Q 1906 3584 2284 3584 
Q 2666 3584 2933 3390 
Q 3200 3197 3328 2828 
z
" id="DejaVuSans-6d" transform="scale(0.015625)"/>
      <path d="M 3597 1894 
L 3597 1613 
L 953 1613 
Q 991 1019 1311 708 
Q 1631 397 2203 397 
Q 2534 397 2845 478 
Q 3156 559 3463 722 
L 3463 178 
Q 3153 47 2828 -22 
Q 2503 -91 2169 -91 
Q 1331 -91 842 396 
Q 353 884 353 1716 
Q 353 2575 817 3079 
Q 1281 3584 2069 3584 
Q 2775 3584 3186 3129 
Q 3597 2675 3597 1894 
z
M 3022 2063 
Q 3016 2534 2758 2815 
Q 2500 3097 2075 3097 
Q 1594 3097 1305 2825 
Q 1016 2553 972 2059 
L 3022 2063 
z
" id="DejaVuSans-65" transform="scale(0.015625)"/>
      <path d="M 2906 2969 
L 2906 4863 
L 3481 4863 
L 3481 0 
L 2906 0 
L 2906 525 
Q 2725 213 2448 61 
Q 2172 -91 1784 -91 
Q 1150 -91 751 415 
Q 353 922 353 1747 
Q 353 2572 751 3078 
Q 1150 3584 1784 3584 
Q 2172 3584 2448 3432 
Q 2725 3281 2906 2969 
z
M 947 1747 
Q 947 1113 1208 752 
Q 1469 391 1925 391 
Q 2381 391 2643 752 
Q 2906 1113 2906 1747 
Q 2906 2381 2643 2742 
Q 2381 3103 1925 3103 
Q 1469 3103 1208 2742 
Q 947 2381 947 1747 
z
" id="DejaVuSans-64" transform="scale(0.015625)"/>
      <path d="M 1159 525 
L 1159 -1331 
L 581 -1331 
L 581 3500 
L 1159 3500 
L 1159 2969 
Q 1341 3281 1617 3432 
Q 1894 3584 2278 3584 
Q 2916 3584 3314 3078 
Q 3713 2572 3713 1747 
Q 3713 922 3314 415 
Q 2916 -91 2278 -91 
Q 1894 -91 1617 61 
Q 1341 213 1159 525 
z
M 3116 1747 
Q 3116 2381 2855 2742 
Q 2594 3103 2138 3103 
Q 1681 3103 1420 2742 
Q 1159 2381 1159 1747 
Q 1159 1113 1420 752 
Q 1681 391 2138 391 
Q 2594 391 2855 752 
Q 3116 1113 3116 1747 
z
" id="DejaVuSans-70" transform="scale(0.015625)"/>
      <path d="M 1172 4494 
L 1172 3500 
L 2356 3500 
L 2356 3053 
L 1172 3053 
L 1172 1153 
Q 1172 725 1289 603 
Q 1406 481 1766 481 
L 2356 481 
L 2356 0 
L 1766 0 
Q 1100 0 847 248 
Q 594 497 594 1153 
L 594 3053 
L 172 3053 
L 172 3500 
L 594 3500 
L 594 4494 
L 1172 4494 
z
" id="DejaVuSans-74" transform="scale(0.015625)"/>
      <path d="M 1959 3097 
Q 1497 3097 1228 2736 
Q 959 2375 959 1747 
Q 959 1119 1226 758 
Q 1494 397 1959 397 
Q 2419 397 2687 759 
Q 2956 1122 2956 1747 
Q 2956 2369 2687 2733 
Q 2419 3097 1959 3097 
z
M 1959 3584 
Q 2709 3584 3137 3096 
Q 3566 2609 3566 1747 
Q 3566 888 3137 398 
Q 2709 -91 1959 -91 
Q 1206 -91 779 398 
Q 353 888 353 1747 
Q 353 2609 779 3096 
Q 1206 3584 1959 3584 
z
" id="DejaVuSans-6f" transform="scale(0.015625)"/>
      <path d="M 603 4863 
L 1178 4863 
L 1178 0 
L 603 0 
L 603 4863 
z
" id="DejaVuSans-6c" transform="scale(0.015625)"/>
     </defs>
     <use transform="translate(0 0.390625)" xlink:href="#DejaVuSans-54"/>
     <use transform="translate(61.083984 0.390625)" xlink:href="#DejaVuSans-69"/>
     <use transform="translate(88.867188 0.390625)" xlink:href="#DejaVuSans-6d"/>
     <use transform="translate(186.279297 0.390625)" xlink:href="#DejaVuSans-65"/>
     <use transform="translate(247.802734 0.390625)" xlink:href="#DejaVuSans-20"/>
     <use transform="translate(279.589844 0.390625)" xlink:href="#DejaVuSans-64"/>
     <use transform="translate(343.066406 0.390625)" xlink:href="#DejaVuSans-65"/>
     <use transform="translate(404.589844 0.390625)" xlink:href="#DejaVuSans-70"/>
     <use transform="translate(468.066406 0.390625)" xlink:href="#DejaVuSans-65"/>
     <use transform="translate(529.589844 0.390625)" xlink:href="#DejaVuSans-6e"/>
     <use transform="translate(592.96875 0.390625)" xlink:href="#DejaVuSans-64"/>
     <use transform="translate(656.445312 0.390625)" xlink:href="#DejaVuSans-65"/>
     <use transform="translate(717.96875 0.390625)" xlink:href="#DejaVuSans-6e"/>
     <use transform="translate(781.347656 0.390625)" xlink:href="#DejaVuSans-74"/>
     <use transform="translate(820.556641 0.390625)" xlink:href="#DejaVuSans-20"/>
     <use transform="translate(852.34375 0.390625)" xlink:href="#DejaVuSans-Oblique-3b2"/>
     <use transform="translate(916.162109 0.390625)" xlink:href="#DejaVuSans-20"/>
     <use transform="translate(947.949219 0.390625)" xlink:href="#DejaVuSans-6d"/>
     <use transform="translate(1045.361328 0.390625)" xlink:href="#DejaVuSans-6f"/>
     <use transform="translate(1106.542969 0.390625)" xlink:href="#DejaVuSans-64"/>
     <use transform="translate(1170.019531 0.390625)" xlink:href="#DejaVuSans-65"/>
     <use transform="translate(1231.542969 0.390625)" xlink:href="#DejaVuSans-6c"/>
    </g>
   </g>
   <g id="legend_1">
    <g id="patch_7">
     <path d="M 528.228125 97.5125 
L 630.2 97.5125 
Q 632.2 97.5125 632.2 95.5125 
L 632.2 37.8 
Q 632.2 35.8 630.2 35.8 
L 528.228125 35.8 
Q 526.228125 35.8 526.228125 37.8 
L 526.228125 95.5125 
Q 526.228125 97.5125 528.228125 97.5125 
z
" style="fill:#ffffff;opacity:0.8;stroke:#cccccc;stroke-linejoin:miter;"/>
    </g>
    <g id="line2d_14">
     <path d="M 530.228125 43.898438 
L 550.228125 43.898438 
" style="fill:none;stroke:#1f77b4;stroke-linecap:square;stroke-width:1.5;"/>
    </g>
    <g id="line2d_15"/>
    <g id="text_13">
     <!-- Beta APM -->
     <g transform="translate(558.228125 47.398438)scale(0.1 -0.1)">
      <defs>
       <path d="M 1259 2228 
L 1259 519 
L 2272 519 
Q 2781 519 3026 730 
Q 3272 941 3272 1375 
Q 3272 1813 3026 2020 
Q 2781 2228 2272 2228 
L 1259 2228 
z
M 1259 4147 
L 1259 2741 
L 2194 2741 
Q 2656 2741 2882 2914 
Q 3109 3088 3109 3444 
Q 3109 3797 2882 3972 
Q 2656 4147 2194 4147 
L 1259 4147 
z
M 628 4666 
L 2241 4666 
Q 2963 4666 3353 4366 
Q 3744 4066 3744 3513 
Q 3744 3084 3544 2831 
Q 3344 2578 2956 2516 
Q 3422 2416 3680 2098 
Q 3938 1781 3938 1306 
Q 3938 681 3513 340 
Q 3088 0 2303 0 
L 628 0 
L 628 4666 
z
" id="DejaVuSans-42" transform="scale(0.015625)"/>
       <path d="M 2194 1759 
Q 1497 1759 1228 1600 
Q 959 1441 959 1056 
Q 959 750 1161 570 
Q 1363 391 1709 391 
Q 2188 391 2477 730 
Q 2766 1069 2766 1631 
L 2766 1759 
L 2194 1759 
z
M 3341 1997 
L 3341 0 
L 2766 0 
L 2766 531 
Q 2569 213 2275 61 
Q 1981 -91 1556 -91 
Q 1019 -91 701 211 
Q 384 513 384 1019 
Q 384 1609 779 1909 
Q 1175 2209 1959 2209 
L 2766 2209 
L 2766 2266 
Q 2766 2663 2505 2880 
Q 2244 3097 1772 3097 
Q 1472 3097 1187 3025 
Q 903 2953 641 2809 
L 641 3341 
Q 956 3463 1253 3523 
Q 1550 3584 1831 3584 
Q 2591 3584 2966 3190 
Q 3341 2797 3341 1997 
z
" id="DejaVuSans-61" transform="scale(0.015625)"/>
       <path d="M 2188 4044 
L 1331 1722 
L 3047 1722 
L 2188 4044 
z
M 1831 4666 
L 2547 4666 
L 4325 0 
L 3669 0 
L 3244 1197 
L 1141 1197 
L 716 0 
L 50 0 
L 1831 4666 
z
" id="DejaVuSans-41" transform="scale(0.015625)"/>
       <path d="M 1259 4147 
L 1259 2394 
L 2053 2394 
Q 2494 2394 2734 2622 
Q 2975 2850 2975 3272 
Q 2975 3691 2734 3919 
Q 2494 4147 2053 4147 
L 1259 4147 
z
M 628 4666 
L 2053 4666 
Q 2838 4666 3239 4311 
Q 3641 3956 3641 3272 
Q 3641 2581 3239 2228 
Q 2838 1875 2053 1875 
L 1259 1875 
L 1259 0 
L 628 0 
L 628 4666 
z
" id="DejaVuSans-50" transform="scale(0.015625)"/>
       <path d="M 628 4666 
L 1569 4666 
L 2759 1491 
L 3956 4666 
L 4897 4666 
L 4897 0 
L 4281 0 
L 4281 4097 
L 3078 897 
L 2444 897 
L 1241 4097 
L 1241 0 
L 628 0 
L 628 4666 
z
" id="DejaVuSans-4d" transform="scale(0.015625)"/>
      </defs>
      <use xlink:href="#DejaVuSans-42"/>
      <use x="68.603516" xlink:href="#DejaVuSans-65"/>
      <use x="130.126953" xlink:href="#DejaVuSans-74"/>
      <use x="169.335938" xlink:href="#DejaVuSans-61"/>
      <use x="230.615234" xlink:href="#DejaVuSans-20"/>
      <use x="262.402344" xlink:href="#DejaVuSans-41"/>
      <use x="330.810547" xlink:href="#DejaVuSans-50"/>
      <use x="391.113281" xlink:href="#DejaVuSans-4d"/>
     </g>
    </g>
    <g id="line2d_16">
     <path d="M 530.228125 58.576563 
L 550.228125 58.576563 
" style="fill:none;stroke:#ff7f0e;stroke-linecap:square;stroke-width:1.5;"/>
    </g>
    <g id="line2d_17"/>
    <g id="text_14">
     <!-- Beta APM-hyp -->
     <g transform="translate(558.228125 62.076563)scale(0.1 -0.1)">
      <defs>
       <path d="M 313 2009 
L 1997 2009 
L 1997 1497 
L 313 1497 
L 313 2009 
z
" id="DejaVuSans-2d" transform="scale(0.015625)"/>
       <path d="M 3513 2113 
L 3513 0 
L 2938 0 
L 2938 2094 
Q 2938 2591 2744 2837 
Q 2550 3084 2163 3084 
Q 1697 3084 1428 2787 
Q 1159 2491 1159 1978 
L 1159 0 
L 581 0 
L 581 4863 
L 1159 4863 
L 1159 2956 
Q 1366 3272 1645 3428 
Q 1925 3584 2291 3584 
Q 2894 3584 3203 3211 
Q 3513 2838 3513 2113 
z
" id="DejaVuSans-68" transform="scale(0.015625)"/>
       <path d="M 2059 -325 
Q 1816 -950 1584 -1140 
Q 1353 -1331 966 -1331 
L 506 -1331 
L 506 -850 
L 844 -850 
Q 1081 -850 1212 -737 
Q 1344 -625 1503 -206 
L 1606 56 
L 191 3500 
L 800 3500 
L 1894 763 
L 2988 3500 
L 3597 3500 
L 2059 -325 
z
" id="DejaVuSans-79" transform="scale(0.015625)"/>
      </defs>
      <use xlink:href="#DejaVuSans-42"/>
      <use x="68.603516" xlink:href="#DejaVuSans-65"/>
      <use x="130.126953" xlink:href="#DejaVuSans-74"/>
      <use x="169.335938" xlink:href="#DejaVuSans-61"/>
      <use x="230.615234" xlink:href="#DejaVuSans-20"/>
      <use x="262.402344" xlink:href="#DejaVuSans-41"/>
      <use x="330.810547" xlink:href="#DejaVuSans-50"/>
      <use x="391.113281" xlink:href="#DejaVuSans-4d"/>
      <use x="477.392578" xlink:href="#DejaVuSans-2d"/>
      <use x="513.476562" xlink:href="#DejaVuSans-68"/>
      <use x="576.855469" xlink:href="#DejaVuSans-79"/>
      <use x="636.035156" xlink:href="#DejaVuSans-70"/>
     </g>
    </g>
    <g id="line2d_18">
     <path d="M 530.228125 73.254688 
L 550.228125 73.254688 
" style="fill:none;stroke:#2ca02c;stroke-linecap:square;stroke-width:1.5;"/>
    </g>
    <g id="line2d_19"/>
    <g id="text_15">
     <!-- Beta BPM -->
     <g transform="translate(558.228125 76.754688)scale(0.1 -0.1)">
      <use xlink:href="#DejaVuSans-42"/>
      <use x="68.603516" xlink:href="#DejaVuSans-65"/>
      <use x="130.126953" xlink:href="#DejaVuSans-74"/>
      <use x="169.335938" xlink:href="#DejaVuSans-61"/>
      <use x="230.615234" xlink:href="#DejaVuSans-20"/>
      <use x="262.402344" xlink:href="#DejaVuSans-42"/>
      <use x="331.005859" xlink:href="#DejaVuSans-50"/>
      <use x="391.308594" xlink:href="#DejaVuSans-4d"/>
     </g>
    </g>
    <g id="line2d_20">
     <path d="M 530.228125 87.932813 
L 550.228125 87.932813 
" style="fill:none;stroke:#d62728;stroke-linecap:square;stroke-width:1.5;"/>
    </g>
    <g id="line2d_21"/>
    <g id="text_16">
     <!-- Beta BPM-hyp -->
     <g transform="translate(558.228125 91.432813)scale(0.1 -0.1)">
      <use xlink:href="#DejaVuSans-42"/>
      <use x="68.603516" xlink:href="#DejaVuSans-65"/>
      <use x="130.126953" xlink:href="#DejaVuSans-74"/>
      <use x="169.335938" xlink:href="#DejaVuSans-61"/>
      <use x="230.615234" xlink:href="#DejaVuSans-20"/>
      <use x="262.402344" xlink:href="#DejaVuSans-42"/>
      <use x="331.005859" xlink:href="#DejaVuSans-50"/>
      <use x="391.308594" xlink:href="#DejaVuSans-4d"/>
      <use x="477.587891" xlink:href="#DejaVuSans-2d"/>
      <use x="513.671875" xlink:href="#DejaVuSans-68"/>
      <use x="577.050781" xlink:href="#DejaVuSans-79"/>
      <use x="636.230469" xlink:href="#DejaVuSans-70"/>
     </g>
    </g>
   </g>
  </g>
 </g>
 <defs>
  <clipPath id="p41e7263bf4">
   <rect height="338.9" width="550.15" x="87.05" y="30.8"/>
  </clipPath>
 </defs>
</svg>
