<?xml version="1.0" encoding="utf-8" standalone="no"?>
<!DOCTYPE svg PUBLIC "-//W3C//DTD SVG 1.1//EN"
  "http://www.w3.org/Graphics/SVG/1.1/DTD/svg11.dtd">
<svg height="288pt" version="1.1" viewBox="0 0 432 288" width="432pt" xmlns="http://www.w3.org/2000/svg" xmlns:xlink="http://www.w3.org/1999/xlink">
 <metadata>
  <rdf:RDF xmlns:cc="http://creativecommons.org/ns#" xmlns:dc="http://purl.org/dc/elements/1.1/" xmlns:rdf="http://www.w3.org/1999/02/22-rdf-syntax-ns#">
   <cc:Work>
    <dc:type rdf:resource="http://purl.org/dc/dcmitype/StillImage"/>
    <dc:date>2021-08-06T19:13:23.687834</dc:date>
    <dc:format>image/svg+xml</dc:format>
    <dc:creator>
     <cc:Agent>
      <dc:title>Matplotlib v3.4.2, https://matplotlib.org/</dc:title>
     </cc:Agent>
    </dc:creator>
   </cc:Work>
  </rdf:RDF>
 </metadata>
 <defs>
  <style type="text/css">*{stroke-linecap:butt;stroke-linejoin:round;}</style>
 </defs>
 <g id="figure_1">
  <g id="patch_1">
   <path d="M 0 288 
L 432 288 
L 432 0 
L 0 0 
z
" style="fill:none;"/>
  </g>
  <g id="axes_1">
   <g id="patch_2">
    <path d="M 85.3 225.7 
L 421.2 225.7 
L 421.2 28.8 
L 85.3 28.8 
z
" style="fill:#ffffff;"/>
   </g>
   <g id="PolyCollection_1">
    <defs>
     <path d="M 100.568182 -71.25 
L 100.568182 -71.25 
L 122.276497 -174.293358 
L 143.984813 -243.913664 
L 165.693128 -250.019776 
L 187.401443 -250.242721 
L 209.109759 -250.249868 
L 230.818074 -250.249998 
L 252.526389 -250.25 
L 274.234705 -250.25 
L 295.94302 -250.25 
L 317.651336 -250.25 
L 339.359651 -250.25 
L 361.067966 -250.25 
L 382.776282 -250.25 
L 382.776282 -245.860249 
L 382.776282 -245.860249 
L 361.067966 -244.169569 
L 339.359651 -242.371671 
L 317.651336 -239.822812 
L 295.94302 -236.08254 
L 274.234705 -231.381287 
L 252.526389 -223.644526 
L 230.818074 -212.512219 
L 209.109759 -196.780217 
L 187.401443 -174.999278 
L 165.693128 -149.243205 
L 143.984813 -116.162624 
L 122.276497 -83.882963 
L 100.568182 -71.25 
z
" id="m0f21712467" style="stroke:#008000;stroke-opacity:0.1;"/>
    </defs>
    <g clip-path="url(#pb994345b58)">
     <use style="fill:#008000;fill-opacity:0.1;stroke:#008000;stroke-opacity:0.1;" x="0" xlink:href="#m0f21712467" y="288"/>
    </g>
   </g>
   <g id="matplotlib.axis_1">
    <g id="xtick_1">
     <g id="line2d_1">
      <defs>
       <path d="M 0 0 
L 0 3.5 
" id="ma92b83940c" style="stroke:#000000;stroke-width:0.8;"/>
      </defs>
      <g>
       <use style="stroke:#000000;stroke-width:0.8;" x="100.568182" xlink:href="#ma92b83940c" y="225.7"/>
      </g>
     </g>
     <g id="text_1">
      <!-- 0 -->
      <g transform="translate(95.796307 244.097656)scale(0.15 -0.15)">
       <defs>
        <path d="M 2034 4250 
Q 1547 4250 1301 3770 
Q 1056 3291 1056 2328 
Q 1056 1369 1301 889 
Q 1547 409 2034 409 
Q 2525 409 2770 889 
Q 3016 1369 3016 2328 
Q 3016 3291 2770 3770 
Q 2525 4250 2034 4250 
z
M 2034 4750 
Q 2819 4750 3233 4129 
Q 3647 3509 3647 2328 
Q 3647 1150 3233 529 
Q 2819 -91 2034 -91 
Q 1250 -91 836 529 
Q 422 1150 422 2328 
Q 422 3509 836 4129 
Q 1250 4750 2034 4750 
z
" id="DejaVuSans-30" transform="scale(0.015625)"/>
       </defs>
       <use xlink:href="#DejaVuSans-30"/>
      </g>
     </g>
    </g>
    <g id="xtick_2">
     <g id="line2d_2">
      <g>
       <use style="stroke:#000000;stroke-width:0.8;" x="172.929233" xlink:href="#ma92b83940c" y="225.7"/>
      </g>
     </g>
     <g id="text_2">
      <!-- 5 -->
      <g transform="translate(168.157358 244.097656)scale(0.15 -0.15)">
       <defs>
        <path d="M 691 4666 
L 3169 4666 
L 3169 4134 
L 1269 4134 
L 1269 2991 
Q 1406 3038 1543 3061 
Q 1681 3084 1819 3084 
Q 2600 3084 3056 2656 
Q 3513 2228 3513 1497 
Q 3513 744 3044 326 
Q 2575 -91 1722 -91 
Q 1428 -91 1123 -41 
Q 819 9 494 109 
L 494 744 
Q 775 591 1075 516 
Q 1375 441 1709 441 
Q 2250 441 2565 725 
Q 2881 1009 2881 1497 
Q 2881 1984 2565 2268 
Q 2250 2553 1709 2553 
Q 1456 2553 1204 2497 
Q 953 2441 691 2322 
L 691 4666 
z
" id="DejaVuSans-35" transform="scale(0.015625)"/>
       </defs>
       <use xlink:href="#DejaVuSans-35"/>
      </g>
     </g>
    </g>
    <g id="xtick_3">
     <g id="line2d_3">
      <g>
       <use style="stroke:#000000;stroke-width:0.8;" x="245.290284" xlink:href="#ma92b83940c" y="225.7"/>
      </g>
     </g>
     <g id="text_3">
      <!-- 10 -->
      <g transform="translate(235.746534 244.097656)scale(0.15 -0.15)">
       <defs>
        <path d="M 794 531 
L 1825 531 
L 1825 4091 
L 703 3866 
L 703 4441 
L 1819 4666 
L 2450 4666 
L 2450 531 
L 3481 531 
L 3481 0 
L 794 0 
L 794 531 
z
" id="DejaVuSans-31" transform="scale(0.015625)"/>
       </defs>
       <use xlink:href="#DejaVuSans-31"/>
       <use x="63.623047" xlink:href="#DejaVuSans-30"/>
      </g>
     </g>
    </g>
    <g id="xtick_4">
     <g id="line2d_4">
      <g>
       <use style="stroke:#000000;stroke-width:0.8;" x="317.651336" xlink:href="#ma92b83940c" y="225.7"/>
      </g>
     </g>
     <g id="text_4">
      <!-- 15 -->
      <g transform="translate(308.107586 244.097656)scale(0.15 -0.15)">
       <use xlink:href="#DejaVuSans-31"/>
       <use x="63.623047" xlink:href="#DejaVuSans-35"/>
      </g>
     </g>
    </g>
    <g id="xtick_5">
     <g id="line2d_5">
      <g>
       <use style="stroke:#000000;stroke-width:0.8;" x="390.012387" xlink:href="#ma92b83940c" y="225.7"/>
      </g>
     </g>
     <g id="text_5">
      <!-- 20 -->
      <g transform="translate(380.468637 244.097656)scale(0.15 -0.15)">
       <defs>
        <path d="M 1228 531 
L 3431 531 
L 3431 0 
L 469 0 
L 469 531 
Q 828 903 1448 1529 
Q 2069 2156 2228 2338 
Q 2531 2678 2651 2914 
Q 2772 3150 2772 3378 
Q 2772 3750 2511 3984 
Q 2250 4219 1831 4219 
Q 1534 4219 1204 4116 
Q 875 4013 500 3803 
L 500 4441 
Q 881 4594 1212 4672 
Q 1544 4750 1819 4750 
Q 2544 4750 2975 4387 
Q 3406 4025 3406 3419 
Q 3406 3131 3298 2873 
Q 3191 2616 2906 2266 
Q 2828 2175 2409 1742 
Q 1991 1309 1228 531 
z
" id="DejaVuSans-32" transform="scale(0.015625)"/>
       </defs>
       <use xlink:href="#DejaVuSans-32"/>
       <use x="63.623047" xlink:href="#DejaVuSans-30"/>
      </g>
     </g>
    </g>
    <g id="text_6">
     <!-- $t_{pore}$ (ns) -->
     <g transform="translate(210.55 266.417187)scale(0.2 -0.2)">
      <defs>
       <path d="M 2706 3500 
L 2619 3053 
L 1472 3053 
L 1100 1153 
Q 1081 1047 1072 975 
Q 1063 903 1063 863 
Q 1063 663 1183 572 
Q 1303 481 1569 481 
L 2150 481 
L 2053 0 
L 1503 0 
Q 991 0 739 200 
Q 488 400 488 806 
Q 488 878 497 964 
Q 506 1050 525 1153 
L 897 3053 
L 409 3053 
L 500 3500 
L 978 3500 
L 1172 4494 
L 1747 4494 
L 1556 3500 
L 2706 3500 
z
" id="DejaVuSans-Oblique-74" transform="scale(0.015625)"/>
       <path d="M 3175 2156 
Q 3175 2616 2975 2859 
Q 2775 3103 2400 3103 
Q 2144 3103 1911 2972 
Q 1678 2841 1497 2591 
Q 1319 2344 1212 1994 
Q 1106 1644 1106 1300 
Q 1106 863 1306 627 
Q 1506 391 1875 391 
Q 2147 391 2380 519 
Q 2613 647 2778 891 
Q 2956 1147 3065 1494 
Q 3175 1841 3175 2156 
z
M 1394 2969 
Q 1625 3272 1939 3428 
Q 2253 3584 2638 3584 
Q 3175 3584 3472 3232 
Q 3769 2881 3769 2247 
Q 3769 1728 3584 1258 
Q 3400 788 3053 416 
Q 2822 169 2531 39 
Q 2241 -91 1919 -91 
Q 1547 -91 1294 64 
Q 1041 219 916 525 
L 556 -1331 
L -19 -1331 
L 922 3500 
L 1497 3500 
L 1394 2969 
z
" id="DejaVuSans-Oblique-70" transform="scale(0.015625)"/>
       <path d="M 1625 -91 
Q 1009 -91 651 289 
Q 294 669 294 1325 
Q 294 1706 417 2101 
Q 541 2497 738 2766 
Q 1047 3184 1428 3384 
Q 1809 3584 2291 3584 
Q 2888 3584 3255 3212 
Q 3622 2841 3622 2241 
Q 3622 1825 3500 1412 
Q 3378 1000 3181 728 
Q 2875 309 2494 109 
Q 2113 -91 1625 -91 
z
M 891 1344 
Q 891 869 1089 633 
Q 1288 397 1691 397 
Q 2269 397 2648 901 
Q 3028 1406 3028 2181 
Q 3028 2634 2825 2865 
Q 2622 3097 2228 3097 
Q 1903 3097 1650 2945 
Q 1397 2794 1197 2484 
Q 1050 2253 970 1956 
Q 891 1659 891 1344 
z
" id="DejaVuSans-Oblique-6f" transform="scale(0.015625)"/>
       <path d="M 2853 2969 
Q 2766 3016 2653 3041 
Q 2541 3066 2413 3066 
Q 1953 3066 1609 2717 
Q 1266 2369 1153 1784 
L 800 0 
L 225 0 
L 909 3500 
L 1484 3500 
L 1375 2956 
Q 1603 3259 1920 3421 
Q 2238 3584 2597 3584 
Q 2691 3584 2781 3573 
Q 2872 3563 2963 3538 
L 2853 2969 
z
" id="DejaVuSans-Oblique-72" transform="scale(0.015625)"/>
       <path d="M 3078 2063 
Q 3088 2113 3092 2166 
Q 3097 2219 3097 2272 
Q 3097 2653 2873 2875 
Q 2650 3097 2266 3097 
Q 1838 3097 1509 2826 
Q 1181 2556 1013 2059 
L 3078 2063 
z
M 3578 1613 
L 903 1613 
Q 884 1494 878 1425 
Q 872 1356 872 1306 
Q 872 872 1139 634 
Q 1406 397 1894 397 
Q 2269 397 2603 481 
Q 2938 566 3225 728 
L 3116 159 
Q 2806 34 2476 -28 
Q 2147 -91 1806 -91 
Q 1078 -91 686 257 
Q 294 606 294 1247 
Q 294 1794 489 2264 
Q 684 2734 1063 3103 
Q 1306 3334 1642 3459 
Q 1978 3584 2356 3584 
Q 2950 3584 3301 3228 
Q 3653 2872 3653 2272 
Q 3653 2128 3634 1964 
Q 3616 1800 3578 1613 
z
" id="DejaVuSans-Oblique-65" transform="scale(0.015625)"/>
       <path id="DejaVuSans-20" transform="scale(0.015625)"/>
       <path d="M 1984 4856 
Q 1566 4138 1362 3434 
Q 1159 2731 1159 2009 
Q 1159 1288 1364 580 
Q 1569 -128 1984 -844 
L 1484 -844 
Q 1016 -109 783 600 
Q 550 1309 550 2009 
Q 550 2706 781 3412 
Q 1013 4119 1484 4856 
L 1984 4856 
z
" id="DejaVuSans-28" transform="scale(0.015625)"/>
       <path d="M 3513 2113 
L 3513 0 
L 2938 0 
L 2938 2094 
Q 2938 2591 2744 2837 
Q 2550 3084 2163 3084 
Q 1697 3084 1428 2787 
Q 1159 2491 1159 1978 
L 1159 0 
L 581 0 
L 581 3500 
L 1159 3500 
L 1159 2956 
Q 1366 3272 1645 3428 
Q 1925 3584 2291 3584 
Q 2894 3584 3203 3211 
Q 3513 2838 3513 2113 
z
" id="DejaVuSans-6e" transform="scale(0.015625)"/>
       <path d="M 2834 3397 
L 2834 2853 
Q 2591 2978 2328 3040 
Q 2066 3103 1784 3103 
Q 1356 3103 1142 2972 
Q 928 2841 928 2578 
Q 928 2378 1081 2264 
Q 1234 2150 1697 2047 
L 1894 2003 
Q 2506 1872 2764 1633 
Q 3022 1394 3022 966 
Q 3022 478 2636 193 
Q 2250 -91 1575 -91 
Q 1294 -91 989 -36 
Q 684 19 347 128 
L 347 722 
Q 666 556 975 473 
Q 1284 391 1588 391 
Q 1994 391 2212 530 
Q 2431 669 2431 922 
Q 2431 1156 2273 1281 
Q 2116 1406 1581 1522 
L 1381 1569 
Q 847 1681 609 1914 
Q 372 2147 372 2553 
Q 372 3047 722 3315 
Q 1072 3584 1716 3584 
Q 2034 3584 2315 3537 
Q 2597 3491 2834 3397 
z
" id="DejaVuSans-73" transform="scale(0.015625)"/>
       <path d="M 513 4856 
L 1013 4856 
Q 1481 4119 1714 3412 
Q 1947 2706 1947 2009 
Q 1947 1309 1714 600 
Q 1481 -109 1013 -844 
L 513 -844 
Q 928 -128 1133 580 
Q 1338 1288 1338 2009 
Q 1338 2731 1133 3434 
Q 928 4138 513 4856 
z
" id="DejaVuSans-29" transform="scale(0.015625)"/>
      </defs>
      <use transform="translate(0 0.125)" xlink:href="#DejaVuSans-Oblique-74"/>
      <use transform="translate(39.208984 -16.28125)scale(0.7)" xlink:href="#DejaVuSans-Oblique-70"/>
      <use transform="translate(83.642578 -16.28125)scale(0.7)" xlink:href="#DejaVuSans-Oblique-6f"/>
      <use transform="translate(126.469727 -16.28125)scale(0.7)" xlink:href="#DejaVuSans-Oblique-72"/>
      <use transform="translate(155.249023 -16.28125)scale(0.7)" xlink:href="#DejaVuSans-Oblique-65"/>
      <use transform="translate(201.049805 0.125)" xlink:href="#DejaVuSans-20"/>
      <use transform="translate(232.836914 0.125)" xlink:href="#DejaVuSans-28"/>
      <use transform="translate(271.850586 0.125)" xlink:href="#DejaVuSans-6e"/>
      <use transform="translate(335.229492 0.125)" xlink:href="#DejaVuSans-73"/>
      <use transform="translate(387.329102 0.125)" xlink:href="#DejaVuSans-29"/>
     </g>
    </g>
   </g>
   <g id="matplotlib.axis_2">
    <g id="ytick_1">
     <g id="line2d_6">
      <defs>
       <path d="M 0 0 
L -3.5 0 
" id="m0ddc2e17e8" style="stroke:#000000;stroke-width:0.8;"/>
      </defs>
      <g>
       <use style="stroke:#000000;stroke-width:0.8;" x="85.3" xlink:href="#m0ddc2e17e8" y="216.75"/>
      </g>
     </g>
     <g id="text_7">
      <!-- 0.0 -->
      <g transform="translate(46.49375 224.348437)scale(0.2 -0.2)">
       <defs>
        <path d="M 684 794 
L 1344 794 
L 1344 0 
L 684 0 
L 684 794 
z
" id="DejaVuSans-2e" transform="scale(0.015625)"/>
       </defs>
       <use xlink:href="#DejaVuSans-30"/>
       <use x="63.623047" xlink:href="#DejaVuSans-2e"/>
       <use x="95.410156" xlink:href="#DejaVuSans-30"/>
      </g>
     </g>
    </g>
    <g id="ytick_2">
     <g id="line2d_7">
      <g>
       <use style="stroke:#000000;stroke-width:0.8;" x="85.3" xlink:href="#m0ddc2e17e8" y="127.25"/>
      </g>
     </g>
     <g id="text_8">
      <!-- 0.5 -->
      <g transform="translate(46.49375 134.848437)scale(0.2 -0.2)">
       <use xlink:href="#DejaVuSans-30"/>
       <use x="63.623047" xlink:href="#DejaVuSans-2e"/>
       <use x="95.410156" xlink:href="#DejaVuSans-35"/>
      </g>
     </g>
    </g>
    <g id="ytick_3">
     <g id="line2d_8">
      <g>
       <use style="stroke:#000000;stroke-width:0.8;" x="85.3" xlink:href="#m0ddc2e17e8" y="37.75"/>
      </g>
     </g>
     <g id="text_9">
      <!-- 1.0 -->
      <g transform="translate(46.49375 45.348437)scale(0.2 -0.2)">
       <use xlink:href="#DejaVuSans-31"/>
       <use x="63.623047" xlink:href="#DejaVuSans-2e"/>
       <use x="95.410156" xlink:href="#DejaVuSans-30"/>
      </g>
     </g>
    </g>
    <g id="text_10">
     <!-- CDF(t) -->
     <g transform="translate(38.334375 159.407812)rotate(-90)scale(0.2 -0.2)">
      <defs>
       <path d="M 4122 4306 
L 4122 3641 
Q 3803 3938 3442 4084 
Q 3081 4231 2675 4231 
Q 1875 4231 1450 3742 
Q 1025 3253 1025 2328 
Q 1025 1406 1450 917 
Q 1875 428 2675 428 
Q 3081 428 3442 575 
Q 3803 722 4122 1019 
L 4122 359 
Q 3791 134 3420 21 
Q 3050 -91 2638 -91 
Q 1578 -91 968 557 
Q 359 1206 359 2328 
Q 359 3453 968 4101 
Q 1578 4750 2638 4750 
Q 3056 4750 3426 4639 
Q 3797 4528 4122 4306 
z
" id="DejaVuSans-43" transform="scale(0.015625)"/>
       <path d="M 1259 4147 
L 1259 519 
L 2022 519 
Q 2988 519 3436 956 
Q 3884 1394 3884 2338 
Q 3884 3275 3436 3711 
Q 2988 4147 2022 4147 
L 1259 4147 
z
M 628 4666 
L 1925 4666 
Q 3281 4666 3915 4102 
Q 4550 3538 4550 2338 
Q 4550 1131 3912 565 
Q 3275 0 1925 0 
L 628 0 
L 628 4666 
z
" id="DejaVuSans-44" transform="scale(0.015625)"/>
       <path d="M 628 4666 
L 3309 4666 
L 3309 4134 
L 1259 4134 
L 1259 2759 
L 3109 2759 
L 3109 2228 
L 1259 2228 
L 1259 0 
L 628 0 
L 628 4666 
z
" id="DejaVuSans-46" transform="scale(0.015625)"/>
       <path d="M 1172 4494 
L 1172 3500 
L 2356 3500 
L 2356 3053 
L 1172 3053 
L 1172 1153 
Q 1172 725 1289 603 
Q 1406 481 1766 481 
L 2356 481 
L 2356 0 
L 1766 0 
Q 1100 0 847 248 
Q 594 497 594 1153 
L 594 3053 
L 172 3053 
L 172 3500 
L 594 3500 
L 594 4494 
L 1172 4494 
z
" id="DejaVuSans-74" transform="scale(0.015625)"/>
      </defs>
      <use xlink:href="#DejaVuSans-43"/>
      <use x="69.824219" xlink:href="#DejaVuSans-44"/>
      <use x="146.826172" xlink:href="#DejaVuSans-46"/>
      <use x="204.345703" xlink:href="#DejaVuSans-28"/>
      <use x="243.359375" xlink:href="#DejaVuSans-74"/>
      <use x="282.568359" xlink:href="#DejaVuSans-29"/>
     </g>
    </g>
   </g>
   <g id="line2d_9">
    <path clip-path="url(#pb994345b58)" d="M 110.698729 216.563542 
L 110.698729 216.377083 
L 112.14595 216.190625 
L 112.14595 215.817708 
L 113.593171 215.63125 
L 113.593171 215.258333 
L 115.040392 215.071875 
L 115.040392 214.326042 
L 116.487613 214.139583 
L 116.487613 213.580208 
L 119.382055 213.39375 
L 119.382055 207.8 
L 120.829276 207.613542 
L 120.829276 203.511458 
L 122.276497 203.325 
L 122.276497 198.85 
L 123.723718 198.663542 
L 123.723718 195.120833 
L 125.170939 194.934375 
L 125.170939 192.883333 
L 128.065381 192.696875 
L 128.065381 182.441667 
L 129.512602 182.255208 
L 129.512602 177.034375 
L 130.959823 176.847917 
L 130.959823 171.440625 
L 132.407044 171.254167 
L 132.407044 168.830208 
L 133.854265 168.64375 
L 133.854265 165.846875 
L 135.301486 165.660417 
L 135.301486 165.473958 
L 136.748707 165.2875 
L 136.748707 150.930208 
L 138.195928 150.74375 
L 138.195928 147.3875 
L 139.64315 147.201042 
L 139.64315 144.777083 
L 141.090371 144.590625 
L 141.090371 142.353125 
L 142.537592 142.166667 
L 142.537592 140.675 
L 145.432034 140.488542 
L 145.432034 128.928125 
L 146.879255 128.741667 
L 146.879255 124.826042 
L 148.326476 124.639583 
L 148.326476 121.283333 
L 149.773697 121.096875 
L 149.773697 118.672917 
L 151.220918 118.486458 
L 151.220918 117.18125 
L 154.11536 116.994792 
L 154.11536 108.790625 
L 155.562581 108.604167 
L 155.562581 106.739583 
L 157.009802 106.553125 
L 157.009802 105.061458 
L 158.457023 104.875 
L 158.457023 102.823958 
L 159.904244 102.6375 
L 159.904244 102.451042 
L 162.798686 102.264583 
L 162.798686 93.873958 
L 164.245907 93.6875 
L 164.245907 91.45 
L 165.693128 91.263542 
L 165.693128 90.33125 
L 167.140349 90.144792 
L 167.140349 89.2125 
L 168.58757 89.026042 
L 168.58757 88.653125 
L 171.482012 88.280208 
L 171.482012 82.872917 
L 172.929233 82.686458 
L 172.929233 80.821875 
L 174.376454 80.635417 
L 174.376454 79.14375 
L 175.823675 78.957292 
L 175.823675 78.025 
L 177.270896 77.838542 
L 177.270896 77.652083 
L 180.165338 77.465625 
L 180.165338 74.109375 
L 181.612559 73.922917 
L 181.612559 72.43125 
L 183.05978 72.244792 
L 183.05978 72.058333 
L 184.507001 71.871875 
L 184.507001 71.685417 
L 185.954222 71.498958 
L 185.954222 70.939583 
L 187.401443 70.753125 
L 187.401443 70.380208 
L 188.848664 70.19375 
L 188.848664 68.888542 
L 190.295885 68.702083 
L 190.295885 68.142708 
L 191.743106 67.95625 
L 191.743106 66.651042 
L 193.190327 66.464583 
L 193.190327 65.71875 
L 194.637548 65.532292 
L 194.637548 65.159375 
L 196.084769 64.972917 
L 196.084769 64.413542 
L 197.531991 64.227083 
L 197.531991 63.854167 
L 198.979212 63.667708 
L 198.979212 63.294792 
L 200.426433 63.108333 
L 200.426433 62.176042 
L 201.873654 61.989583 
L 201.873654 60.870833 
L 203.320875 60.684375 
L 203.320875 60.125 
L 204.768096 59.938542 
L 204.768096 59.565625 
L 206.215317 59.379167 
L 206.215317 58.260417 
L 207.662538 58.073958 
L 207.662538 56.955208 
L 209.109759 56.76875 
L 212.004201 56.582292 
L 212.004201 55.836458 
L 213.451422 55.65 
L 213.451422 55.277083 
L 214.898643 55.090625 
L 214.898643 54.717708 
L 216.345864 54.53125 
L 216.345864 54.344792 
L 217.793085 54.158333 
L 217.793085 53.785417 
L 219.240306 53.598958 
L 219.240306 53.226042 
L 223.581969 52.853125 
L 223.581969 52.29375 
L 226.476411 51.920833 
L 226.476411 51.547917 
L 227.923632 51.361458 
L 227.923632 50.429167 
L 229.370853 50.242708 
L 229.370853 49.683333 
L 230.818074 49.496875 
L 230.818074 48.751042 
L 233.712516 48.378125 
L 233.712516 48.191667 
L 235.159737 48.005208 
L 235.159737 47.632292 
L 236.606958 47.445833 
L 236.606958 47.072917 
L 240.948621 46.886458 
L 240.948621 46.7 
L 242.395842 46.513542 
L 242.395842 45.954167 
L 245.290284 45.58125 
L 249.631947 45.208333 
L 249.631947 44.648958 
L 252.526389 44.276042 
L 252.526389 44.089583 
L 256.868053 43.530208 
L 261.209716 43.157292 
L 262.656937 42.970833 
L 262.656937 42.784375 
L 264.104158 42.597917 
L 268.445821 42.225 
L 268.445821 41.665625 
L 269.893042 41.479167 
L 275.681926 41.292708 
L 278.576368 40.919792 
L 281.47081 40.733333 
L 281.47081 40.546875 
L 295.94302 40.173958 
L 298.837462 39.9875 
L 319.098557 39.428125 
L 327.781883 39.241667 
L 327.781883 39.055208 
L 335.017988 38.682292 
L 375.540177 38.309375 
L 387.117945 38.122917 
L 388.565166 37.936458 
L 405.931818 37.75 
L 405.931818 37.75 
" style="fill:none;stroke:#1f77b4;stroke-linecap:square;stroke-width:1.5;"/>
   </g>
   <g id="line2d_10">
    <path clip-path="url(#pb994345b58)" d="M 100.568182 216.563542 
L 100.568182 198.85 
L 122.276497 198.663542 
L 122.276497 140.675 
L 143.984813 140.488542 
L 143.984813 90.33125 
L 165.693128 90.144792 
L 165.693128 70.380208 
L 187.401443 70.19375 
L 187.401443 56.76875 
L 209.109759 56.582292 
L 209.109759 48.751042 
L 230.818074 48.564583 
L 230.818074 44.089583 
L 252.526389 43.903125 
L 252.526389 41.479167 
L 274.234705 41.292708 
L 274.234705 40.173958 
L 295.94302 39.9875 
L 295.94302 39.614583 
L 317.651336 39.428125 
L 317.651336 38.682292 
L 361.067966 38.495833 
L 361.067966 38.309375 
L 382.776282 38.122917 
L 382.776282 37.936458 
L 404.484597 37.75 
L 404.484597 37.75 
" style="fill:none;stroke:#ff7f0e;stroke-linecap:square;stroke-width:1.5;"/>
   </g>
   <g id="line2d_11">
    <path clip-path="url(#pb994345b58)" d="M 100.568182 216.75 
L 122.276497 182.741968 
L 143.984813 116.899678 
L 165.693128 73.655269 
L 187.401443 53.626166 
L 209.109759 44.057703 
L 230.818074 40.154873 
L 252.526389 38.658864 
L 274.234705 38.092909 
L 295.94302 37.895737 
L 317.651336 37.808237 
L 339.359651 37.774385 
L 361.067966 37.7612 
L 382.776282 37.754303 
" style="fill:none;stroke:#2ca02c;stroke-linecap:square;stroke-width:1.5;"/>
   </g>
   <g id="patch_3">
    <path d="M 85.3 225.7 
L 85.3 28.8 
" style="fill:none;stroke:#000000;stroke-linecap:square;stroke-linejoin:miter;stroke-width:0.8;"/>
   </g>
   <g id="patch_4">
    <path d="M 421.2 225.7 
L 421.2 28.8 
" style="fill:none;stroke:#000000;stroke-linecap:square;stroke-linejoin:miter;stroke-width:0.8;"/>
   </g>
   <g id="patch_5">
    <path d="M 85.3 225.7 
L 421.2 225.7 
" style="fill:none;stroke:#000000;stroke-linecap:square;stroke-linejoin:miter;stroke-width:0.8;"/>
   </g>
   <g id="patch_6">
    <path d="M 85.3 28.8 
L 421.2 28.8 
" style="fill:none;stroke:#000000;stroke-linecap:square;stroke-linejoin:miter;stroke-width:0.8;"/>
   </g>
   <g id="text_11">
    <!-- Combining same membrane and same field -->
    <g transform="translate(88.828906 22.8)scale(0.15 -0.15)">
     <defs>
      <path d="M 1959 3097 
Q 1497 3097 1228 2736 
Q 959 2375 959 1747 
Q 959 1119 1226 758 
Q 1494 397 1959 397 
Q 2419 397 2687 759 
Q 2956 1122 2956 1747 
Q 2956 2369 2687 2733 
Q 2419 3097 1959 3097 
z
M 1959 3584 
Q 2709 3584 3137 3096 
Q 3566 2609 3566 1747 
Q 3566 888 3137 398 
Q 2709 -91 1959 -91 
Q 1206 -91 779 398 
Q 353 888 353 1747 
Q 353 2609 779 3096 
Q 1206 3584 1959 3584 
z
" id="DejaVuSans-6f" transform="scale(0.015625)"/>
      <path d="M 3328 2828 
Q 3544 3216 3844 3400 
Q 4144 3584 4550 3584 
Q 5097 3584 5394 3201 
Q 5691 2819 5691 2113 
L 5691 0 
L 5113 0 
L 5113 2094 
Q 5113 2597 4934 2840 
Q 4756 3084 4391 3084 
Q 3944 3084 3684 2787 
Q 3425 2491 3425 1978 
L 3425 0 
L 2847 0 
L 2847 2094 
Q 2847 2600 2669 2842 
Q 2491 3084 2119 3084 
Q 1678 3084 1418 2786 
Q 1159 2488 1159 1978 
L 1159 0 
L 581 0 
L 581 3500 
L 1159 3500 
L 1159 2956 
Q 1356 3278 1631 3431 
Q 1906 3584 2284 3584 
Q 2666 3584 2933 3390 
Q 3200 3197 3328 2828 
z
" id="DejaVuSans-6d" transform="scale(0.015625)"/>
      <path d="M 3116 1747 
Q 3116 2381 2855 2742 
Q 2594 3103 2138 3103 
Q 1681 3103 1420 2742 
Q 1159 2381 1159 1747 
Q 1159 1113 1420 752 
Q 1681 391 2138 391 
Q 2594 391 2855 752 
Q 3116 1113 3116 1747 
z
M 1159 2969 
Q 1341 3281 1617 3432 
Q 1894 3584 2278 3584 
Q 2916 3584 3314 3078 
Q 3713 2572 3713 1747 
Q 3713 922 3314 415 
Q 2916 -91 2278 -91 
Q 1894 -91 1617 61 
Q 1341 213 1159 525 
L 1159 0 
L 581 0 
L 581 4863 
L 1159 4863 
L 1159 2969 
z
" id="DejaVuSans-62" transform="scale(0.015625)"/>
      <path d="M 603 3500 
L 1178 3500 
L 1178 0 
L 603 0 
L 603 3500 
z
M 603 4863 
L 1178 4863 
L 1178 4134 
L 603 4134 
L 603 4863 
z
" id="DejaVuSans-69" transform="scale(0.015625)"/>
      <path d="M 2906 1791 
Q 2906 2416 2648 2759 
Q 2391 3103 1925 3103 
Q 1463 3103 1205 2759 
Q 947 2416 947 1791 
Q 947 1169 1205 825 
Q 1463 481 1925 481 
Q 2391 481 2648 825 
Q 2906 1169 2906 1791 
z
M 3481 434 
Q 3481 -459 3084 -895 
Q 2688 -1331 1869 -1331 
Q 1566 -1331 1297 -1286 
Q 1028 -1241 775 -1147 
L 775 -588 
Q 1028 -725 1275 -790 
Q 1522 -856 1778 -856 
Q 2344 -856 2625 -561 
Q 2906 -266 2906 331 
L 2906 616 
Q 2728 306 2450 153 
Q 2172 0 1784 0 
Q 1141 0 747 490 
Q 353 981 353 1791 
Q 353 2603 747 3093 
Q 1141 3584 1784 3584 
Q 2172 3584 2450 3431 
Q 2728 3278 2906 2969 
L 2906 3500 
L 3481 3500 
L 3481 434 
z
" id="DejaVuSans-67" transform="scale(0.015625)"/>
      <path d="M 2194 1759 
Q 1497 1759 1228 1600 
Q 959 1441 959 1056 
Q 959 750 1161 570 
Q 1363 391 1709 391 
Q 2188 391 2477 730 
Q 2766 1069 2766 1631 
L 2766 1759 
L 2194 1759 
z
M 3341 1997 
L 3341 0 
L 2766 0 
L 2766 531 
Q 2569 213 2275 61 
Q 1981 -91 1556 -91 
Q 1019 -91 701 211 
Q 384 513 384 1019 
Q 384 1609 779 1909 
Q 1175 2209 1959 2209 
L 2766 2209 
L 2766 2266 
Q 2766 2663 2505 2880 
Q 2244 3097 1772 3097 
Q 1472 3097 1187 3025 
Q 903 2953 641 2809 
L 641 3341 
Q 956 3463 1253 3523 
Q 1550 3584 1831 3584 
Q 2591 3584 2966 3190 
Q 3341 2797 3341 1997 
z
" id="DejaVuSans-61" transform="scale(0.015625)"/>
      <path d="M 3597 1894 
L 3597 1613 
L 953 1613 
Q 991 1019 1311 708 
Q 1631 397 2203 397 
Q 2534 397 2845 478 
Q 3156 559 3463 722 
L 3463 178 
Q 3153 47 2828 -22 
Q 2503 -91 2169 -91 
Q 1331 -91 842 396 
Q 353 884 353 1716 
Q 353 2575 817 3079 
Q 1281 3584 2069 3584 
Q 2775 3584 3186 3129 
Q 3597 2675 3597 1894 
z
M 3022 2063 
Q 3016 2534 2758 2815 
Q 2500 3097 2075 3097 
Q 1594 3097 1305 2825 
Q 1016 2553 972 2059 
L 3022 2063 
z
" id="DejaVuSans-65" transform="scale(0.015625)"/>
      <path d="M 2631 2963 
Q 2534 3019 2420 3045 
Q 2306 3072 2169 3072 
Q 1681 3072 1420 2755 
Q 1159 2438 1159 1844 
L 1159 0 
L 581 0 
L 581 3500 
L 1159 3500 
L 1159 2956 
Q 1341 3275 1631 3429 
Q 1922 3584 2338 3584 
Q 2397 3584 2469 3576 
Q 2541 3569 2628 3553 
L 2631 2963 
z
" id="DejaVuSans-72" transform="scale(0.015625)"/>
      <path d="M 2906 2969 
L 2906 4863 
L 3481 4863 
L 3481 0 
L 2906 0 
L 2906 525 
Q 2725 213 2448 61 
Q 2172 -91 1784 -91 
Q 1150 -91 751 415 
Q 353 922 353 1747 
Q 353 2572 751 3078 
Q 1150 3584 1784 3584 
Q 2172 3584 2448 3432 
Q 2725 3281 2906 2969 
z
M 947 1747 
Q 947 1113 1208 752 
Q 1469 391 1925 391 
Q 2381 391 2643 752 
Q 2906 1113 2906 1747 
Q 2906 2381 2643 2742 
Q 2381 3103 1925 3103 
Q 1469 3103 1208 2742 
Q 947 2381 947 1747 
z
" id="DejaVuSans-64" transform="scale(0.015625)"/>
      <path d="M 2375 4863 
L 2375 4384 
L 1825 4384 
Q 1516 4384 1395 4259 
Q 1275 4134 1275 3809 
L 1275 3500 
L 2222 3500 
L 2222 3053 
L 1275 3053 
L 1275 0 
L 697 0 
L 697 3053 
L 147 3053 
L 147 3500 
L 697 3500 
L 697 3744 
Q 697 4328 969 4595 
Q 1241 4863 1831 4863 
L 2375 4863 
z
" id="DejaVuSans-66" transform="scale(0.015625)"/>
      <path d="M 603 4863 
L 1178 4863 
L 1178 0 
L 603 0 
L 603 4863 
z
" id="DejaVuSans-6c" transform="scale(0.015625)"/>
     </defs>
     <use xlink:href="#DejaVuSans-43"/>
     <use x="69.824219" xlink:href="#DejaVuSans-6f"/>
     <use x="131.005859" xlink:href="#DejaVuSans-6d"/>
     <use x="228.417969" xlink:href="#DejaVuSans-62"/>
     <use x="291.894531" xlink:href="#DejaVuSans-69"/>
     <use x="319.677734" xlink:href="#DejaVuSans-6e"/>
     <use x="383.056641" xlink:href="#DejaVuSans-69"/>
     <use x="410.839844" xlink:href="#DejaVuSans-6e"/>
     <use x="474.21875" xlink:href="#DejaVuSans-67"/>
     <use x="537.695312" xlink:href="#DejaVuSans-20"/>
     <use x="569.482422" xlink:href="#DejaVuSans-73"/>
     <use x="621.582031" xlink:href="#DejaVuSans-61"/>
     <use x="682.861328" xlink:href="#DejaVuSans-6d"/>
     <use x="780.273438" xlink:href="#DejaVuSans-65"/>
     <use x="841.796875" xlink:href="#DejaVuSans-20"/>
     <use x="873.583984" xlink:href="#DejaVuSans-6d"/>
     <use x="970.996094" xlink:href="#DejaVuSans-65"/>
     <use x="1032.519531" xlink:href="#DejaVuSans-6d"/>
     <use x="1129.931641" xlink:href="#DejaVuSans-62"/>
     <use x="1193.408203" xlink:href="#DejaVuSans-72"/>
     <use x="1234.521484" xlink:href="#DejaVuSans-61"/>
     <use x="1295.800781" xlink:href="#DejaVuSans-6e"/>
     <use x="1359.179688" xlink:href="#DejaVuSans-65"/>
     <use x="1420.703125" xlink:href="#DejaVuSans-20"/>
     <use x="1452.490234" xlink:href="#DejaVuSans-61"/>
     <use x="1513.769531" xlink:href="#DejaVuSans-6e"/>
     <use x="1577.148438" xlink:href="#DejaVuSans-64"/>
     <use x="1640.625" xlink:href="#DejaVuSans-20"/>
     <use x="1672.412109" xlink:href="#DejaVuSans-73"/>
     <use x="1724.511719" xlink:href="#DejaVuSans-61"/>
     <use x="1785.791016" xlink:href="#DejaVuSans-6d"/>
     <use x="1883.203125" xlink:href="#DejaVuSans-65"/>
     <use x="1944.726562" xlink:href="#DejaVuSans-20"/>
     <use x="1976.513672" xlink:href="#DejaVuSans-66"/>
     <use x="2011.71875" xlink:href="#DejaVuSans-69"/>
     <use x="2039.501953" xlink:href="#DejaVuSans-65"/>
     <use x="2101.025391" xlink:href="#DejaVuSans-6c"/>
     <use x="2128.808594" xlink:href="#DejaVuSans-64"/>
    </g>
   </g>
   <g id="legend_1">
    <g id="patch_7">
     <path d="M 251.604687 220.7 
L 414.2 220.7 
Q 416.2 220.7 416.2 218.7 
L 416.2 175.665625 
Q 416.2 173.665625 414.2 173.665625 
L 251.604687 173.665625 
Q 249.604687 173.665625 249.604687 175.665625 
L 249.604687 218.7 
Q 249.604687 220.7 251.604687 220.7 
z
" style="fill:#ffffff;opacity:0.8;stroke:#cccccc;stroke-linejoin:miter;"/>
    </g>
    <g id="line2d_12">
     <path d="M 253.604687 181.764062 
L 273.604687 181.764062 
" style="fill:none;stroke:#1f77b4;stroke-linecap:square;stroke-width:1.5;"/>
    </g>
    <g id="line2d_13"/>
    <g id="text_12">
     <!-- data -->
     <g transform="translate(281.604687 185.264062)scale(0.1 -0.1)">
      <use xlink:href="#DejaVuSans-64"/>
      <use x="63.476562" xlink:href="#DejaVuSans-61"/>
      <use x="124.755859" xlink:href="#DejaVuSans-74"/>
      <use x="163.964844" xlink:href="#DejaVuSans-61"/>
     </g>
    </g>
    <g id="line2d_14">
     <path d="M 253.604687 196.442187 
L 273.604687 196.442187 
" style="fill:none;stroke:#ff7f0e;stroke-linecap:square;stroke-width:1.5;"/>
    </g>
    <g id="line2d_15"/>
    <g id="text_13">
     <!-- data binned -->
     <g transform="translate(281.604687 199.942187)scale(0.1 -0.1)">
      <use xlink:href="#DejaVuSans-64"/>
      <use x="63.476562" xlink:href="#DejaVuSans-61"/>
      <use x="124.755859" xlink:href="#DejaVuSans-74"/>
      <use x="163.964844" xlink:href="#DejaVuSans-61"/>
      <use x="225.244141" xlink:href="#DejaVuSans-20"/>
      <use x="257.03125" xlink:href="#DejaVuSans-62"/>
      <use x="320.507812" xlink:href="#DejaVuSans-69"/>
      <use x="348.291016" xlink:href="#DejaVuSans-6e"/>
      <use x="411.669922" xlink:href="#DejaVuSans-6e"/>
      <use x="475.048828" xlink:href="#DejaVuSans-65"/>
      <use x="536.572266" xlink:href="#DejaVuSans-64"/>
     </g>
    </g>
    <g id="line2d_16">
     <path d="M 253.604687 211.120313 
L 273.604687 211.120313 
" style="fill:none;stroke:#2ca02c;stroke-linecap:square;stroke-width:1.5;"/>
    </g>
    <g id="line2d_17"/>
    <g id="text_14">
     <!-- Posterior Predictive Check -->
     <g transform="translate(281.604687 214.620313)scale(0.1 -0.1)">
      <defs>
       <path d="M 1259 4147 
L 1259 2394 
L 2053 2394 
Q 2494 2394 2734 2622 
Q 2975 2850 2975 3272 
Q 2975 3691 2734 3919 
Q 2494 4147 2053 4147 
L 1259 4147 
z
M 628 4666 
L 2053 4666 
Q 2838 4666 3239 4311 
Q 3641 3956 3641 3272 
Q 3641 2581 3239 2228 
Q 2838 1875 2053 1875 
L 1259 1875 
L 1259 0 
L 628 0 
L 628 4666 
z
" id="DejaVuSans-50" transform="scale(0.015625)"/>
       <path d="M 3122 3366 
L 3122 2828 
Q 2878 2963 2633 3030 
Q 2388 3097 2138 3097 
Q 1578 3097 1268 2742 
Q 959 2388 959 1747 
Q 959 1106 1268 751 
Q 1578 397 2138 397 
Q 2388 397 2633 464 
Q 2878 531 3122 666 
L 3122 134 
Q 2881 22 2623 -34 
Q 2366 -91 2075 -91 
Q 1284 -91 818 406 
Q 353 903 353 1747 
Q 353 2603 823 3093 
Q 1294 3584 2113 3584 
Q 2378 3584 2631 3529 
Q 2884 3475 3122 3366 
z
" id="DejaVuSans-63" transform="scale(0.015625)"/>
       <path d="M 191 3500 
L 800 3500 
L 1894 563 
L 2988 3500 
L 3597 3500 
L 2284 0 
L 1503 0 
L 191 3500 
z
" id="DejaVuSans-76" transform="scale(0.015625)"/>
       <path d="M 3513 2113 
L 3513 0 
L 2938 0 
L 2938 2094 
Q 2938 2591 2744 2837 
Q 2550 3084 2163 3084 
Q 1697 3084 1428 2787 
Q 1159 2491 1159 1978 
L 1159 0 
L 581 0 
L 581 4863 
L 1159 4863 
L 1159 2956 
Q 1366 3272 1645 3428 
Q 1925 3584 2291 3584 
Q 2894 3584 3203 3211 
Q 3513 2838 3513 2113 
z
" id="DejaVuSans-68" transform="scale(0.015625)"/>
       <path d="M 581 4863 
L 1159 4863 
L 1159 1991 
L 2875 3500 
L 3609 3500 
L 1753 1863 
L 3688 0 
L 2938 0 
L 1159 1709 
L 1159 0 
L 581 0 
L 581 4863 
z
" id="DejaVuSans-6b" transform="scale(0.015625)"/>
      </defs>
      <use xlink:href="#DejaVuSans-50"/>
      <use x="56.677734" xlink:href="#DejaVuSans-6f"/>
      <use x="117.859375" xlink:href="#DejaVuSans-73"/>
      <use x="169.958984" xlink:href="#DejaVuSans-74"/>
      <use x="209.167969" xlink:href="#DejaVuSans-65"/>
      <use x="270.691406" xlink:href="#DejaVuSans-72"/>
      <use x="311.804688" xlink:href="#DejaVuSans-69"/>
      <use x="339.587891" xlink:href="#DejaVuSans-6f"/>
      <use x="400.769531" xlink:href="#DejaVuSans-72"/>
      <use x="441.882812" xlink:href="#DejaVuSans-20"/>
      <use x="473.669922" xlink:href="#DejaVuSans-50"/>
      <use x="532.222656" xlink:href="#DejaVuSans-72"/>
      <use x="571.085938" xlink:href="#DejaVuSans-65"/>
      <use x="632.609375" xlink:href="#DejaVuSans-64"/>
      <use x="696.085938" xlink:href="#DejaVuSans-69"/>
      <use x="723.869141" xlink:href="#DejaVuSans-63"/>
      <use x="778.849609" xlink:href="#DejaVuSans-74"/>
      <use x="818.058594" xlink:href="#DejaVuSans-69"/>
      <use x="845.841797" xlink:href="#DejaVuSans-76"/>
      <use x="905.021484" xlink:href="#DejaVuSans-65"/>
      <use x="966.544922" xlink:href="#DejaVuSans-20"/>
      <use x="998.332031" xlink:href="#DejaVuSans-43"/>
      <use x="1068.15625" xlink:href="#DejaVuSans-68"/>
      <use x="1131.535156" xlink:href="#DejaVuSans-65"/>
      <use x="1193.058594" xlink:href="#DejaVuSans-63"/>
      <use x="1248.039062" xlink:href="#DejaVuSans-6b"/>
     </g>
    </g>
   </g>
  </g>
 </g>
 <defs>
  <clipPath id="pb994345b58">
   <rect height="196.9" width="335.9" x="85.3" y="28.8"/>
  </clipPath>
 </defs>
</svg>
