<?xml version="1.0" encoding="utf-8" standalone="no"?>
<!DOCTYPE svg PUBLIC "-//W3C//DTD SVG 1.1//EN"
  "http://www.w3.org/Graphics/SVG/1.1/DTD/svg11.dtd">
<svg height="432pt" version="1.1" viewBox="0 0 648 432" width="648pt" xmlns="http://www.w3.org/2000/svg" xmlns:xlink="http://www.w3.org/1999/xlink">
 <metadata>
  <rdf:RDF xmlns:cc="http://creativecommons.org/ns#" xmlns:dc="http://purl.org/dc/elements/1.1/" xmlns:rdf="http://www.w3.org/1999/02/22-rdf-syntax-ns#">
   <cc:Work>
    <dc:type rdf:resource="http://purl.org/dc/dcmitype/StillImage"/>
    <dc:date>2021-08-06T19:13:38.250563</dc:date>
    <dc:format>image/svg+xml</dc:format>
    <dc:creator>
     <cc:Agent>
      <dc:title>Matplotlib v3.4.2, https://matplotlib.org/</dc:title>
     </cc:Agent>
    </dc:creator>
   </cc:Work>
  </rdf:RDF>
 </metadata>
 <defs>
  <style type="text/css">*{stroke-linecap:butt;stroke-linejoin:round;}</style>
 </defs>
 <g id="figure_1">
  <g id="patch_1">
   <path d="M 0 432 
L 648 432 
L 648 0 
L 0 0 
z
" style="fill:none;"/>
  </g>
  <g id="axes_1">
   <g id="patch_2">
    <path d="M 40.3 369.7 
L 620.575 369.7 
L 620.575 10.8 
L 40.3 10.8 
z
" style="fill:#ffffff;"/>
   </g>
   <g id="matplotlib.axis_1">
    <g id="xtick_1">
     <g id="line2d_1">
      <defs>
       <path d="M 0 0 
L 0 3.5 
" id="m68fd452f2e" style="stroke:#000000;stroke-width:0.8;"/>
      </defs>
      <g>
       <use style="stroke:#000000;stroke-width:0.8;" x="40.3" xlink:href="#m68fd452f2e" y="369.7"/>
      </g>
     </g>
     <g id="text_1">
      <!-- 0.0 -->
      <g transform="translate(28.372656 388.097656)scale(0.15 -0.15)">
       <defs>
        <path d="M 2034 4250 
Q 1547 4250 1301 3770 
Q 1056 3291 1056 2328 
Q 1056 1369 1301 889 
Q 1547 409 2034 409 
Q 2525 409 2770 889 
Q 3016 1369 3016 2328 
Q 3016 3291 2770 3770 
Q 2525 4250 2034 4250 
z
M 2034 4750 
Q 2819 4750 3233 4129 
Q 3647 3509 3647 2328 
Q 3647 1150 3233 529 
Q 2819 -91 2034 -91 
Q 1250 -91 836 529 
Q 422 1150 422 2328 
Q 422 3509 836 4129 
Q 1250 4750 2034 4750 
z
" id="DejaVuSans-30" transform="scale(0.015625)"/>
        <path d="M 684 794 
L 1344 794 
L 1344 0 
L 684 0 
L 684 794 
z
" id="DejaVuSans-2e" transform="scale(0.015625)"/>
       </defs>
       <use xlink:href="#DejaVuSans-30"/>
       <use x="63.623047" xlink:href="#DejaVuSans-2e"/>
       <use x="95.410156" xlink:href="#DejaVuSans-30"/>
      </g>
     </g>
    </g>
    <g id="xtick_2">
     <g id="line2d_2">
      <g>
       <use style="stroke:#000000;stroke-width:0.8;" x="112.834375" xlink:href="#m68fd452f2e" y="369.7"/>
      </g>
     </g>
     <g id="text_2">
      <!-- 2.5 -->
      <g transform="translate(100.907031 388.097656)scale(0.15 -0.15)">
       <defs>
        <path d="M 1228 531 
L 3431 531 
L 3431 0 
L 469 0 
L 469 531 
Q 828 903 1448 1529 
Q 2069 2156 2228 2338 
Q 2531 2678 2651 2914 
Q 2772 3150 2772 3378 
Q 2772 3750 2511 3984 
Q 2250 4219 1831 4219 
Q 1534 4219 1204 4116 
Q 875 4013 500 3803 
L 500 4441 
Q 881 4594 1212 4672 
Q 1544 4750 1819 4750 
Q 2544 4750 2975 4387 
Q 3406 4025 3406 3419 
Q 3406 3131 3298 2873 
Q 3191 2616 2906 2266 
Q 2828 2175 2409 1742 
Q 1991 1309 1228 531 
z
" id="DejaVuSans-32" transform="scale(0.015625)"/>
        <path d="M 691 4666 
L 3169 4666 
L 3169 4134 
L 1269 4134 
L 1269 2991 
Q 1406 3038 1543 3061 
Q 1681 3084 1819 3084 
Q 2600 3084 3056 2656 
Q 3513 2228 3513 1497 
Q 3513 744 3044 326 
Q 2575 -91 1722 -91 
Q 1428 -91 1123 -41 
Q 819 9 494 109 
L 494 744 
Q 775 591 1075 516 
Q 1375 441 1709 441 
Q 2250 441 2565 725 
Q 2881 1009 2881 1497 
Q 2881 1984 2565 2268 
Q 2250 2553 1709 2553 
Q 1456 2553 1204 2497 
Q 953 2441 691 2322 
L 691 4666 
z
" id="DejaVuSans-35" transform="scale(0.015625)"/>
       </defs>
       <use xlink:href="#DejaVuSans-32"/>
       <use x="63.623047" xlink:href="#DejaVuSans-2e"/>
       <use x="95.410156" xlink:href="#DejaVuSans-35"/>
      </g>
     </g>
    </g>
    <g id="xtick_3">
     <g id="line2d_3">
      <g>
       <use style="stroke:#000000;stroke-width:0.8;" x="185.36875" xlink:href="#m68fd452f2e" y="369.7"/>
      </g>
     </g>
     <g id="text_3">
      <!-- 5.0 -->
      <g transform="translate(173.441406 388.097656)scale(0.15 -0.15)">
       <use xlink:href="#DejaVuSans-35"/>
       <use x="63.623047" xlink:href="#DejaVuSans-2e"/>
       <use x="95.410156" xlink:href="#DejaVuSans-30"/>
      </g>
     </g>
    </g>
    <g id="xtick_4">
     <g id="line2d_4">
      <g>
       <use style="stroke:#000000;stroke-width:0.8;" x="257.903125" xlink:href="#m68fd452f2e" y="369.7"/>
      </g>
     </g>
     <g id="text_4">
      <!-- 7.5 -->
      <g transform="translate(245.975781 388.097656)scale(0.15 -0.15)">
       <defs>
        <path d="M 525 4666 
L 3525 4666 
L 3525 4397 
L 1831 0 
L 1172 0 
L 2766 4134 
L 525 4134 
L 525 4666 
z
" id="DejaVuSans-37" transform="scale(0.015625)"/>
       </defs>
       <use xlink:href="#DejaVuSans-37"/>
       <use x="63.623047" xlink:href="#DejaVuSans-2e"/>
       <use x="95.410156" xlink:href="#DejaVuSans-35"/>
      </g>
     </g>
    </g>
    <g id="xtick_5">
     <g id="line2d_5">
      <g>
       <use style="stroke:#000000;stroke-width:0.8;" x="330.4375" xlink:href="#m68fd452f2e" y="369.7"/>
      </g>
     </g>
     <g id="text_5">
      <!-- 10.0 -->
      <g transform="translate(313.738281 388.097656)scale(0.15 -0.15)">
       <defs>
        <path d="M 794 531 
L 1825 531 
L 1825 4091 
L 703 3866 
L 703 4441 
L 1819 4666 
L 2450 4666 
L 2450 531 
L 3481 531 
L 3481 0 
L 794 0 
L 794 531 
z
" id="DejaVuSans-31" transform="scale(0.015625)"/>
       </defs>
       <use xlink:href="#DejaVuSans-31"/>
       <use x="63.623047" xlink:href="#DejaVuSans-30"/>
       <use x="127.246094" xlink:href="#DejaVuSans-2e"/>
       <use x="159.033203" xlink:href="#DejaVuSans-30"/>
      </g>
     </g>
    </g>
    <g id="xtick_6">
     <g id="line2d_6">
      <g>
       <use style="stroke:#000000;stroke-width:0.8;" x="402.971875" xlink:href="#m68fd452f2e" y="369.7"/>
      </g>
     </g>
     <g id="text_6">
      <!-- 12.5 -->
      <g transform="translate(386.272656 388.097656)scale(0.15 -0.15)">
       <use xlink:href="#DejaVuSans-31"/>
       <use x="63.623047" xlink:href="#DejaVuSans-32"/>
       <use x="127.246094" xlink:href="#DejaVuSans-2e"/>
       <use x="159.033203" xlink:href="#DejaVuSans-35"/>
      </g>
     </g>
    </g>
    <g id="xtick_7">
     <g id="line2d_7">
      <g>
       <use style="stroke:#000000;stroke-width:0.8;" x="475.50625" xlink:href="#m68fd452f2e" y="369.7"/>
      </g>
     </g>
     <g id="text_7">
      <!-- 15.0 -->
      <g transform="translate(458.807031 388.097656)scale(0.15 -0.15)">
       <use xlink:href="#DejaVuSans-31"/>
       <use x="63.623047" xlink:href="#DejaVuSans-35"/>
       <use x="127.246094" xlink:href="#DejaVuSans-2e"/>
       <use x="159.033203" xlink:href="#DejaVuSans-30"/>
      </g>
     </g>
    </g>
    <g id="xtick_8">
     <g id="line2d_8">
      <g>
       <use style="stroke:#000000;stroke-width:0.8;" x="548.040625" xlink:href="#m68fd452f2e" y="369.7"/>
      </g>
     </g>
     <g id="text_8">
      <!-- 17.5 -->
      <g transform="translate(531.341406 388.097656)scale(0.15 -0.15)">
       <use xlink:href="#DejaVuSans-31"/>
       <use x="63.623047" xlink:href="#DejaVuSans-37"/>
       <use x="127.246094" xlink:href="#DejaVuSans-2e"/>
       <use x="159.033203" xlink:href="#DejaVuSans-35"/>
      </g>
     </g>
    </g>
    <g id="xtick_9">
     <g id="line2d_9">
      <g>
       <use style="stroke:#000000;stroke-width:0.8;" x="620.575" xlink:href="#m68fd452f2e" y="369.7"/>
      </g>
     </g>
     <g id="text_9">
      <!-- 20.0 -->
      <g transform="translate(603.875781 388.097656)scale(0.15 -0.15)">
       <use xlink:href="#DejaVuSans-32"/>
       <use x="63.623047" xlink:href="#DejaVuSans-30"/>
       <use x="127.246094" xlink:href="#DejaVuSans-2e"/>
       <use x="159.033203" xlink:href="#DejaVuSans-30"/>
      </g>
     </g>
    </g>
    <g id="text_10">
     <!-- $t_{pore}$ (ns) -->
     <g transform="translate(287.7375 410.417188)scale(0.2 -0.2)">
      <defs>
       <path d="M 2706 3500 
L 2619 3053 
L 1472 3053 
L 1100 1153 
Q 1081 1047 1072 975 
Q 1063 903 1063 863 
Q 1063 663 1183 572 
Q 1303 481 1569 481 
L 2150 481 
L 2053 0 
L 1503 0 
Q 991 0 739 200 
Q 488 400 488 806 
Q 488 878 497 964 
Q 506 1050 525 1153 
L 897 3053 
L 409 3053 
L 500 3500 
L 978 3500 
L 1172 4494 
L 1747 4494 
L 1556 3500 
L 2706 3500 
z
" id="DejaVuSans-Oblique-74" transform="scale(0.015625)"/>
       <path d="M 3175 2156 
Q 3175 2616 2975 2859 
Q 2775 3103 2400 3103 
Q 2144 3103 1911 2972 
Q 1678 2841 1497 2591 
Q 1319 2344 1212 1994 
Q 1106 1644 1106 1300 
Q 1106 863 1306 627 
Q 1506 391 1875 391 
Q 2147 391 2380 519 
Q 2613 647 2778 891 
Q 2956 1147 3065 1494 
Q 3175 1841 3175 2156 
z
M 1394 2969 
Q 1625 3272 1939 3428 
Q 2253 3584 2638 3584 
Q 3175 3584 3472 3232 
Q 3769 2881 3769 2247 
Q 3769 1728 3584 1258 
Q 3400 788 3053 416 
Q 2822 169 2531 39 
Q 2241 -91 1919 -91 
Q 1547 -91 1294 64 
Q 1041 219 916 525 
L 556 -1331 
L -19 -1331 
L 922 3500 
L 1497 3500 
L 1394 2969 
z
" id="DejaVuSans-Oblique-70" transform="scale(0.015625)"/>
       <path d="M 1625 -91 
Q 1009 -91 651 289 
Q 294 669 294 1325 
Q 294 1706 417 2101 
Q 541 2497 738 2766 
Q 1047 3184 1428 3384 
Q 1809 3584 2291 3584 
Q 2888 3584 3255 3212 
Q 3622 2841 3622 2241 
Q 3622 1825 3500 1412 
Q 3378 1000 3181 728 
Q 2875 309 2494 109 
Q 2113 -91 1625 -91 
z
M 891 1344 
Q 891 869 1089 633 
Q 1288 397 1691 397 
Q 2269 397 2648 901 
Q 3028 1406 3028 2181 
Q 3028 2634 2825 2865 
Q 2622 3097 2228 3097 
Q 1903 3097 1650 2945 
Q 1397 2794 1197 2484 
Q 1050 2253 970 1956 
Q 891 1659 891 1344 
z
" id="DejaVuSans-Oblique-6f" transform="scale(0.015625)"/>
       <path d="M 2853 2969 
Q 2766 3016 2653 3041 
Q 2541 3066 2413 3066 
Q 1953 3066 1609 2717 
Q 1266 2369 1153 1784 
L 800 0 
L 225 0 
L 909 3500 
L 1484 3500 
L 1375 2956 
Q 1603 3259 1920 3421 
Q 2238 3584 2597 3584 
Q 2691 3584 2781 3573 
Q 2872 3563 2963 3538 
L 2853 2969 
z
" id="DejaVuSans-Oblique-72" transform="scale(0.015625)"/>
       <path d="M 3078 2063 
Q 3088 2113 3092 2166 
Q 3097 2219 3097 2272 
Q 3097 2653 2873 2875 
Q 2650 3097 2266 3097 
Q 1838 3097 1509 2826 
Q 1181 2556 1013 2059 
L 3078 2063 
z
M 3578 1613 
L 903 1613 
Q 884 1494 878 1425 
Q 872 1356 872 1306 
Q 872 872 1139 634 
Q 1406 397 1894 397 
Q 2269 397 2603 481 
Q 2938 566 3225 728 
L 3116 159 
Q 2806 34 2476 -28 
Q 2147 -91 1806 -91 
Q 1078 -91 686 257 
Q 294 606 294 1247 
Q 294 1794 489 2264 
Q 684 2734 1063 3103 
Q 1306 3334 1642 3459 
Q 1978 3584 2356 3584 
Q 2950 3584 3301 3228 
Q 3653 2872 3653 2272 
Q 3653 2128 3634 1964 
Q 3616 1800 3578 1613 
z
" id="DejaVuSans-Oblique-65" transform="scale(0.015625)"/>
       <path id="DejaVuSans-20" transform="scale(0.015625)"/>
       <path d="M 1984 4856 
Q 1566 4138 1362 3434 
Q 1159 2731 1159 2009 
Q 1159 1288 1364 580 
Q 1569 -128 1984 -844 
L 1484 -844 
Q 1016 -109 783 600 
Q 550 1309 550 2009 
Q 550 2706 781 3412 
Q 1013 4119 1484 4856 
L 1984 4856 
z
" id="DejaVuSans-28" transform="scale(0.015625)"/>
       <path d="M 3513 2113 
L 3513 0 
L 2938 0 
L 2938 2094 
Q 2938 2591 2744 2837 
Q 2550 3084 2163 3084 
Q 1697 3084 1428 2787 
Q 1159 2491 1159 1978 
L 1159 0 
L 581 0 
L 581 3500 
L 1159 3500 
L 1159 2956 
Q 1366 3272 1645 3428 
Q 1925 3584 2291 3584 
Q 2894 3584 3203 3211 
Q 3513 2838 3513 2113 
z
" id="DejaVuSans-6e" transform="scale(0.015625)"/>
       <path d="M 2834 3397 
L 2834 2853 
Q 2591 2978 2328 3040 
Q 2066 3103 1784 3103 
Q 1356 3103 1142 2972 
Q 928 2841 928 2578 
Q 928 2378 1081 2264 
Q 1234 2150 1697 2047 
L 1894 2003 
Q 2506 1872 2764 1633 
Q 3022 1394 3022 966 
Q 3022 478 2636 193 
Q 2250 -91 1575 -91 
Q 1294 -91 989 -36 
Q 684 19 347 128 
L 347 722 
Q 666 556 975 473 
Q 1284 391 1588 391 
Q 1994 391 2212 530 
Q 2431 669 2431 922 
Q 2431 1156 2273 1281 
Q 2116 1406 1581 1522 
L 1381 1569 
Q 847 1681 609 1914 
Q 372 2147 372 2553 
Q 372 3047 722 3315 
Q 1072 3584 1716 3584 
Q 2034 3584 2315 3537 
Q 2597 3491 2834 3397 
z
" id="DejaVuSans-73" transform="scale(0.015625)"/>
       <path d="M 513 4856 
L 1013 4856 
Q 1481 4119 1714 3412 
Q 1947 2706 1947 2009 
Q 1947 1309 1714 600 
Q 1481 -109 1013 -844 
L 513 -844 
Q 928 -128 1133 580 
Q 1338 1288 1338 2009 
Q 1338 2731 1133 3434 
Q 928 4138 513 4856 
z
" id="DejaVuSans-29" transform="scale(0.015625)"/>
      </defs>
      <use transform="translate(0 0.125)" xlink:href="#DejaVuSans-Oblique-74"/>
      <use transform="translate(39.208984 -16.28125)scale(0.7)" xlink:href="#DejaVuSans-Oblique-70"/>
      <use transform="translate(83.642578 -16.28125)scale(0.7)" xlink:href="#DejaVuSans-Oblique-6f"/>
      <use transform="translate(126.469727 -16.28125)scale(0.7)" xlink:href="#DejaVuSans-Oblique-72"/>
      <use transform="translate(155.249023 -16.28125)scale(0.7)" xlink:href="#DejaVuSans-Oblique-65"/>
      <use transform="translate(201.049805 0.125)" xlink:href="#DejaVuSans-20"/>
      <use transform="translate(232.836914 0.125)" xlink:href="#DejaVuSans-28"/>
      <use transform="translate(271.850586 0.125)" xlink:href="#DejaVuSans-6e"/>
      <use transform="translate(335.229492 0.125)" xlink:href="#DejaVuSans-73"/>
      <use transform="translate(387.329102 0.125)" xlink:href="#DejaVuSans-29"/>
     </g>
    </g>
   </g>
   <g id="matplotlib.axis_2">
    <g id="text_11">
     <!-- $p(t_{pore})$ -->
     <g transform="translate(30.1 224.55)rotate(-90)scale(0.2 -0.2)">
      <use transform="translate(0 0.125)" xlink:href="#DejaVuSans-Oblique-70"/>
      <use transform="translate(63.476562 0.125)" xlink:href="#DejaVuSans-28"/>
      <use transform="translate(102.490234 0.125)" xlink:href="#DejaVuSans-Oblique-74"/>
      <use transform="translate(141.699219 -16.28125)scale(0.7)" xlink:href="#DejaVuSans-Oblique-70"/>
      <use transform="translate(186.132812 -16.28125)scale(0.7)" xlink:href="#DejaVuSans-Oblique-6f"/>
      <use transform="translate(228.959961 -16.28125)scale(0.7)" xlink:href="#DejaVuSans-Oblique-72"/>
      <use transform="translate(257.739258 -16.28125)scale(0.7)" xlink:href="#DejaVuSans-Oblique-65"/>
      <use transform="translate(303.540039 0.125)" xlink:href="#DejaVuSans-29"/>
     </g>
    </g>
   </g>
   <g id="line2d_10">
    <path clip-path="url(#pd71f99489e)" d="M 2.909233 369.677343 
L 16.623655 369.522943 
L 23.480866 369.263762 
L 28.052339 368.938532 
L 32.623813 368.415401 
L 37.195287 367.603706 
L 39.481024 367.054601 
L 41.766761 366.388309 
L 44.052498 365.586906 
L 46.338235 364.631389 
L 48.623972 363.501979 
L 50.909709 362.178489 
L 53.195446 360.640765 
L 55.481183 358.869173 
L 57.76692 356.845131 
L 60.052657 354.551664 
L 62.338394 351.973962 
L 64.624131 349.099926 
L 66.909868 345.9207 
L 69.195605 342.431151 
L 71.481342 338.630319 
L 73.767079 334.521809 
L 76.052816 330.114136 
L 78.338553 325.421007 
L 82.910027 315.260422 
L 87.481501 304.259883 
L 94.338712 286.878753 
L 101.195923 269.665591 
L 105.767397 259.051324 
L 108.053134 254.175805 
L 110.338871 249.658734 
L 112.624608 245.546928 
L 114.910345 241.880691 
L 117.196082 238.692729 
L 119.481819 236.00729 
L 121.767556 233.83957 
L 124.053293 232.195388 
L 126.33903 231.071163 
L 128.624767 230.454162 
L 130.910504 230.323041 
L 133.196241 230.648632 
L 135.481978 231.394976 
L 137.767715 232.520566 
L 140.053452 233.979771 
L 142.339189 235.724405 
L 144.624926 237.7054 
L 149.1964 242.186074 
L 153.767874 247.075881 
L 169.768032 264.773306 
L 174.339506 270.017639 
L 178.91098 275.575694 
L 183.482454 281.556687 
L 188.053928 287.9735 
L 194.911139 298.145612 
L 201.76835 308.236484 
L 206.339824 314.435298 
L 208.625561 317.28156 
L 210.911298 319.929542 
L 213.197035 322.365704 
L 215.482772 324.58366 
L 217.768509 326.583902 
L 220.054246 328.37315 
L 222.339983 329.963457 
L 224.62572 331.371149 
L 226.911457 332.615725 
L 231.482931 334.703052 
L 236.054405 336.406827 
L 242.911616 338.621704 
L 249.768827 340.84745 
L 254.340301 342.488944 
L 261.197512 345.252303 
L 279.483408 353.130377 
L 284.054882 354.807419 
L 288.626356 356.27583 
L 293.19783 357.536605 
L 297.769304 358.606588 
L 302.340777 359.505908 
L 309.197988 360.565014 
L 316.055199 361.298448 
L 322.91241 361.752607 
L 343.484043 362.830363 
L 352.626991 363.717805 
L 361.769939 364.593638 
L 368.62715 365.02543 
L 375.484361 365.235319 
L 391.48452 365.611148 
L 398.341731 366.058085 
L 407.484679 366.955142 
L 421.199101 368.39627 
L 428.056312 368.929942 
L 437.199259 369.376642 
L 446.342207 369.588029 
L 457.770892 369.677412 
L 457.770892 369.677412 
" style="fill:none;stroke:#d62728;stroke-linecap:square;stroke-width:3;"/>
   </g>
   <g id="line2d_11">
    <path clip-path="url(#pd71f99489e)" d="M -1 369.342784 
L 6.053362 369.099523 
L 13.991497 368.654316 
L 21.929633 367.950222 
L 29.867769 366.884369 
L 33.836836 366.179384 
L 37.805904 365.339238 
L 41.774972 364.348647 
L 45.74404 363.192971 
L 49.713108 361.858774 
L 53.682176 360.334412 
L 57.651243 358.61062 
L 61.620311 356.681068 
L 65.589379 354.542863 
L 69.558447 352.196968 
L 73.527515 349.648507 
L 77.496583 346.906954 
L 81.46565 343.986193 
L 89.403786 337.684037 
L 97.341922 330.935386 
L 113.218193 317.125325 
L 121.156329 310.651557 
L 125.125396 307.654515 
L 129.094464 304.86506 
L 133.063532 302.31602 
L 137.0326 300.03692 
L 141.001668 298.053173 
L 144.970736 296.385319 
L 148.939803 295.048318 
L 152.908871 294.050956 
L 156.877939 293.395412 
L 160.847007 293.077012 
L 164.816075 293.084235 
L 168.785143 293.398974 
L 172.75421 293.997072 
L 176.723278 294.849124 
L 180.692346 295.921512 
L 184.661414 297.17762 
L 192.59955 300.087574 
L 216.413956 309.489895 
L 224.352092 312.182013 
L 232.290228 314.502078 
L 240.228363 316.457501 
L 248.166499 318.099433 
L 256.104635 319.507244 
L 283.88811 324.032489 
L 291.826245 325.619461 
L 299.764381 327.469991 
L 307.702517 329.602133 
L 315.640652 331.991482 
L 327.547856 335.916964 
L 351.362263 343.951507 
L 363.269466 347.62544 
L 371.207602 349.883499 
L 379.145737 351.98252 
L 387.083873 353.918761 
L 395.022009 355.684166 
L 402.960144 357.266426 
L 410.89828 358.652678 
L 418.836416 359.83451 
L 426.774551 360.812013 
L 434.712687 361.595639 
L 442.650823 362.205872 
L 454.558026 362.860749 
L 470.434297 363.438831 
L 494.248704 364.265023 
L 514.094044 365.245345 
L 533.939383 366.262767 
L 545.846586 366.688346 
L 557.75379 366.897903 
L 573.630061 366.880648 
L 609.351671 366.624353 
L 625.227943 366.834981 
L 641.104214 367.291704 
L 649 367.579674 
L 649 367.579674 
" style="fill:none;stroke:#2ca02c;stroke-linecap:square;stroke-width:3;"/>
   </g>
   <g id="line2d_12">
    <path clip-path="url(#pd71f99489e)" d="M 39.140664 369.587691 
L 42.161545 369.310476 
L 43.671985 369.016315 
L 45.182425 368.54531 
L 46.692865 367.821749 
L 48.203305 366.754449 
L 49.713745 365.241263 
L 51.224186 363.176642 
L 52.734626 360.461156 
L 54.245066 357.010677 
L 55.755506 352.761944 
L 57.265946 347.670945 
L 58.776386 341.70153 
L 60.286827 334.804162 
L 61.797267 326.888651 
L 63.307707 317.799346 
L 64.818147 307.304805 
L 66.328587 295.11439 
L 67.839027 280.92959 
L 69.349468 264.527865 
L 70.859908 245.863503 
L 73.125568 214.195475 
L 78.412109 136.391242 
L 79.922549 117.537458 
L 81.432989 101.51275 
L 82.943429 88.421758 
L 84.453869 77.927997 
L 85.964309 69.363726 
L 88.22997 58.402634 
L 92.76129 37.861996 
L 94.27173 32.265667 
L 95.02695 30.149042 
L 95.78217 28.652246 
L 96.537391 27.890029 
L 97.292611 27.960098 
L 98.047831 28.936395 
L 98.803051 30.86399 
L 99.558271 33.755971 
L 100.313491 37.592506 
L 101.068711 42.322122 
L 102.579151 54.118325 
L 104.089591 68.267319 
L 111.641792 143.73605 
L 114.662673 169.430823 
L 117.683553 192.828682 
L 119.949213 208.462907 
L 121.459653 217.627911 
L 122.970093 225.663425 
L 124.480534 232.632095 
L 126.746194 241.63179 
L 130.522294 256.021921 
L 132.032734 262.611545 
L 134.298395 273.840518 
L 137.319275 290.499544 
L 139.584935 302.8347 
L 141.095375 310.313385 
L 142.605816 316.883644 
L 144.116256 322.403547 
L 145.626696 326.849883 
L 147.137136 330.301088 
L 148.647576 332.906213 
L 150.158016 334.848515 
L 151.668457 336.311996 
L 153.178897 337.45741 
L 155.444557 338.847047 
L 159.975878 341.456492 
L 161.486318 342.533875 
L 162.996758 343.838304 
L 164.507198 345.433167 
L 166.017638 347.352512 
L 167.528078 349.586049 
L 169.793739 353.380132 
L 173.569839 359.890607 
L 175.080279 362.18283 
L 176.590719 364.154212 
L 178.10116 365.765315 
L 179.6116 367.017491 
L 181.12204 367.943754 
L 182.63248 368.596346 
L 184.14292 369.03454 
L 186.40858 369.411852 
L 189.429461 369.618509 
L 189.429461 369.618509 
" style="fill:none;stroke:#ff7f0e;stroke-linecap:square;stroke-width:3;"/>
   </g>
   <g id="line2d_13">
    <path clip-path="url(#pd71f99489e)" d="M 13.495302 369.656467 
L 21.279574 369.500543 
L 27.117778 369.142136 
L 31.009914 368.65015 
L 34.90205 367.806579 
L 36.848118 367.197398 
L 38.794186 366.427088 
L 40.740254 365.46472 
L 42.686321 364.276935 
L 44.632389 362.828765 
L 46.578457 361.084742 
L 48.524525 359.01029 
L 50.470593 356.573349 
L 52.416661 353.746173 
L 54.362729 350.50719 
L 56.308797 346.842803 
L 58.254865 342.748985 
L 60.200933 338.23252 
L 62.147001 333.311753 
L 64.093069 328.016738 
L 67.985205 316.478892 
L 71.877341 304.057081 
L 79.661612 278.67725 
L 83.553748 266.707921 
L 87.445884 255.702182 
L 91.33802 245.858101 
L 93.284088 241.40411 
L 95.230156 237.270699 
L 97.176224 233.461541 
L 99.122292 229.979659 
L 101.06836 226.828273 
L 103.014428 224.011206 
L 104.960496 221.532898 
L 106.906564 219.39808 
L 108.852631 217.611261 
L 110.798699 216.176147 
L 112.744767 215.095135 
L 114.690835 214.368982 
L 116.636903 213.996708 
L 118.582971 213.97572 
L 120.529039 214.302125 
L 122.475107 214.971126 
L 124.421175 215.977396 
L 126.367243 217.315311 
L 128.313311 218.978964 
L 130.259379 220.961898 
L 132.205447 223.256568 
L 134.151515 225.853577 
L 136.097583 228.740783 
L 138.043651 231.902404 
L 139.989719 235.318244 
L 143.881854 242.806934 
L 147.77399 250.946072 
L 157.50433 271.931678 
L 161.396466 279.684333 
L 165.288602 286.665455 
L 167.23467 289.817358 
L 169.180738 292.730242 
L 171.126806 295.402185 
L 173.072874 297.837259 
L 175.018941 300.045031 
L 176.965009 302.039969 
L 178.911077 303.840783 
L 180.857145 305.469729 
L 184.749281 308.314244 
L 188.641417 310.793025 
L 198.371757 316.783014 
L 202.263893 319.490978 
L 206.156029 322.44254 
L 219.778504 333.127097 
L 223.67064 335.716561 
L 227.562776 337.990096 
L 233.40098 340.976578 
L 241.185251 344.843046 
L 247.023455 348.061963 
L 260.645931 355.944945 
L 264.538067 357.859974 
L 268.430203 359.504022 
L 272.322339 360.872259 
L 276.214474 361.988405 
L 280.10661 362.890357 
L 285.944814 363.928992 
L 291.783018 364.694918 
L 299.56729 365.461246 
L 320.974037 367.194929 
L 328.758309 367.620847 
L 336.542581 367.781753 
L 354.057192 367.929721 
L 361.841464 368.299812 
L 381.302143 369.379437 
L 391.032483 369.607315 
L 400.762823 369.680925 
L 400.762823 369.680925 
" style="fill:none;stroke:#1f77b4;stroke-linecap:square;stroke-width:3;"/>
   </g>
   <g id="patch_3">
    <path d="M 40.3 369.7 
L 40.3 10.8 
" style="fill:none;stroke:#000000;stroke-linecap:square;stroke-linejoin:miter;stroke-width:0.8;"/>
   </g>
   <g id="patch_4">
    <path d="M 620.575 369.7 
L 620.575 10.8 
" style="fill:none;stroke:#000000;stroke-linecap:square;stroke-linejoin:miter;stroke-width:0.8;"/>
   </g>
   <g id="patch_5">
    <path d="M 40.3 369.7 
L 620.575 369.7 
" style="fill:none;stroke:#000000;stroke-linecap:square;stroke-linejoin:miter;stroke-width:0.8;"/>
   </g>
   <g id="patch_6">
    <path d="M 40.3 10.8 
L 620.575 10.8 
" style="fill:none;stroke:#000000;stroke-linecap:square;stroke-linejoin:miter;stroke-width:0.8;"/>
   </g>
   <g id="legend_1">
    <g id="patch_7">
     <path d="M 537.84375 77.5125 
L 613.575 77.5125 
Q 615.575 77.5125 615.575 75.5125 
L 615.575 17.8 
Q 615.575 15.8 613.575 15.8 
L 537.84375 15.8 
Q 535.84375 15.8 535.84375 17.8 
L 535.84375 75.5125 
Q 535.84375 77.5125 537.84375 77.5125 
z
" style="fill:#ffffff;opacity:0.8;stroke:#cccccc;stroke-linejoin:miter;"/>
    </g>
    <g id="line2d_14">
     <path d="M 539.84375 23.898438 
L 559.84375 23.898438 
" style="fill:none;stroke:#1f77b4;stroke-linecap:square;stroke-width:3;"/>
    </g>
    <g id="line2d_15"/>
    <g id="text_12">
     <!-- APM -->
     <g transform="translate(567.84375 27.398438)scale(0.1 -0.1)">
      <defs>
       <path d="M 2188 4044 
L 1331 1722 
L 3047 1722 
L 2188 4044 
z
M 1831 4666 
L 2547 4666 
L 4325 0 
L 3669 0 
L 3244 1197 
L 1141 1197 
L 716 0 
L 50 0 
L 1831 4666 
z
" id="DejaVuSans-41" transform="scale(0.015625)"/>
       <path d="M 1259 4147 
L 1259 2394 
L 2053 2394 
Q 2494 2394 2734 2622 
Q 2975 2850 2975 3272 
Q 2975 3691 2734 3919 
Q 2494 4147 2053 4147 
L 1259 4147 
z
M 628 4666 
L 2053 4666 
Q 2838 4666 3239 4311 
Q 3641 3956 3641 3272 
Q 3641 2581 3239 2228 
Q 2838 1875 2053 1875 
L 1259 1875 
L 1259 0 
L 628 0 
L 628 4666 
z
" id="DejaVuSans-50" transform="scale(0.015625)"/>
       <path d="M 628 4666 
L 1569 4666 
L 2759 1491 
L 3956 4666 
L 4897 4666 
L 4897 0 
L 4281 0 
L 4281 4097 
L 3078 897 
L 2444 897 
L 1241 4097 
L 1241 0 
L 628 0 
L 628 4666 
z
" id="DejaVuSans-4d" transform="scale(0.015625)"/>
      </defs>
      <use xlink:href="#DejaVuSans-41"/>
      <use x="68.408203" xlink:href="#DejaVuSans-50"/>
      <use x="128.710938" xlink:href="#DejaVuSans-4d"/>
     </g>
    </g>
    <g id="line2d_16">
     <path d="M 539.84375 38.576563 
L 559.84375 38.576563 
" style="fill:none;stroke:#ff7f0e;stroke-linecap:square;stroke-width:3;"/>
    </g>
    <g id="line2d_17"/>
    <g id="text_13">
     <!-- APM-hyp -->
     <g transform="translate(567.84375 42.076563)scale(0.1 -0.1)">
      <defs>
       <path d="M 313 2009 
L 1997 2009 
L 1997 1497 
L 313 1497 
L 313 2009 
z
" id="DejaVuSans-2d" transform="scale(0.015625)"/>
       <path d="M 3513 2113 
L 3513 0 
L 2938 0 
L 2938 2094 
Q 2938 2591 2744 2837 
Q 2550 3084 2163 3084 
Q 1697 3084 1428 2787 
Q 1159 2491 1159 1978 
L 1159 0 
L 581 0 
L 581 4863 
L 1159 4863 
L 1159 2956 
Q 1366 3272 1645 3428 
Q 1925 3584 2291 3584 
Q 2894 3584 3203 3211 
Q 3513 2838 3513 2113 
z
" id="DejaVuSans-68" transform="scale(0.015625)"/>
       <path d="M 2059 -325 
Q 1816 -950 1584 -1140 
Q 1353 -1331 966 -1331 
L 506 -1331 
L 506 -850 
L 844 -850 
Q 1081 -850 1212 -737 
Q 1344 -625 1503 -206 
L 1606 56 
L 191 3500 
L 800 3500 
L 1894 763 
L 2988 3500 
L 3597 3500 
L 2059 -325 
z
" id="DejaVuSans-79" transform="scale(0.015625)"/>
       <path d="M 1159 525 
L 1159 -1331 
L 581 -1331 
L 581 3500 
L 1159 3500 
L 1159 2969 
Q 1341 3281 1617 3432 
Q 1894 3584 2278 3584 
Q 2916 3584 3314 3078 
Q 3713 2572 3713 1747 
Q 3713 922 3314 415 
Q 2916 -91 2278 -91 
Q 1894 -91 1617 61 
Q 1341 213 1159 525 
z
M 3116 1747 
Q 3116 2381 2855 2742 
Q 2594 3103 2138 3103 
Q 1681 3103 1420 2742 
Q 1159 2381 1159 1747 
Q 1159 1113 1420 752 
Q 1681 391 2138 391 
Q 2594 391 2855 752 
Q 3116 1113 3116 1747 
z
" id="DejaVuSans-70" transform="scale(0.015625)"/>
      </defs>
      <use xlink:href="#DejaVuSans-41"/>
      <use x="68.408203" xlink:href="#DejaVuSans-50"/>
      <use x="128.710938" xlink:href="#DejaVuSans-4d"/>
      <use x="214.990234" xlink:href="#DejaVuSans-2d"/>
      <use x="251.074219" xlink:href="#DejaVuSans-68"/>
      <use x="314.453125" xlink:href="#DejaVuSans-79"/>
      <use x="373.632812" xlink:href="#DejaVuSans-70"/>
     </g>
    </g>
    <g id="line2d_18">
     <path d="M 539.84375 53.254688 
L 559.84375 53.254688 
" style="fill:none;stroke:#2ca02c;stroke-linecap:square;stroke-width:3;"/>
    </g>
    <g id="line2d_19"/>
    <g id="text_14">
     <!-- BPM -->
     <g transform="translate(567.84375 56.754688)scale(0.1 -0.1)">
      <defs>
       <path d="M 1259 2228 
L 1259 519 
L 2272 519 
Q 2781 519 3026 730 
Q 3272 941 3272 1375 
Q 3272 1813 3026 2020 
Q 2781 2228 2272 2228 
L 1259 2228 
z
M 1259 4147 
L 1259 2741 
L 2194 2741 
Q 2656 2741 2882 2914 
Q 3109 3088 3109 3444 
Q 3109 3797 2882 3972 
Q 2656 4147 2194 4147 
L 1259 4147 
z
M 628 4666 
L 2241 4666 
Q 2963 4666 3353 4366 
Q 3744 4066 3744 3513 
Q 3744 3084 3544 2831 
Q 3344 2578 2956 2516 
Q 3422 2416 3680 2098 
Q 3938 1781 3938 1306 
Q 3938 681 3513 340 
Q 3088 0 2303 0 
L 628 0 
L 628 4666 
z
" id="DejaVuSans-42" transform="scale(0.015625)"/>
      </defs>
      <use xlink:href="#DejaVuSans-42"/>
      <use x="68.603516" xlink:href="#DejaVuSans-50"/>
      <use x="128.90625" xlink:href="#DejaVuSans-4d"/>
     </g>
    </g>
    <g id="line2d_20">
     <path d="M 539.84375 67.932813 
L 559.84375 67.932813 
" style="fill:none;stroke:#d62728;stroke-linecap:square;stroke-width:3;"/>
    </g>
    <g id="line2d_21"/>
    <g id="text_15">
     <!-- BPM-hyp -->
     <g transform="translate(567.84375 71.432813)scale(0.1 -0.1)">
      <use xlink:href="#DejaVuSans-42"/>
      <use x="68.603516" xlink:href="#DejaVuSans-50"/>
      <use x="128.90625" xlink:href="#DejaVuSans-4d"/>
      <use x="215.185547" xlink:href="#DejaVuSans-2d"/>
      <use x="251.269531" xlink:href="#DejaVuSans-68"/>
      <use x="314.648438" xlink:href="#DejaVuSans-79"/>
      <use x="373.828125" xlink:href="#DejaVuSans-70"/>
     </g>
    </g>
   </g>
  </g>
 </g>
 <defs>
  <clipPath id="pd71f99489e">
   <rect height="358.9" width="580.275" x="40.3" y="10.8"/>
  </clipPath>
 </defs>
</svg>
